<svg width="167" height="112" viewBox="0 0 167 112" fill="none" xmlns="http://www.w3.org/2000/svg">
<path d="M33.796 76.998C33.796 77.418 33.7027 77.7633 33.516 78.034C33.3293 78.2953 33.0867 78.496 32.788 78.636C32.4893 78.776 32.1627 78.874 31.808 78.93C31.4533 78.986 31.108 79.014 30.772 79.014C30.464 79.014 30.156 78.9813 29.848 78.916C29.5493 78.8507 29.246 78.804 28.938 78.776C28.8727 78.524 28.8073 78.272 28.742 78.02C28.686 77.768 28.6207 77.5207 28.546 77.278C28.5367 77.25 28.5133 77.1847 28.476 77.082C28.448 76.9793 28.434 76.9233 28.434 76.914C28.434 76.8393 28.4573 76.788 28.504 76.76C28.5507 76.7227 28.6067 76.704 28.672 76.704C28.7373 76.704 28.784 76.7273 28.812 76.774C28.868 76.8393 28.9147 76.928 28.952 77.04C28.9987 77.152 29.0407 77.25 29.078 77.334C29.1527 77.4833 29.218 77.6 29.274 77.684C29.33 77.7587 29.4187 77.8567 29.54 77.978C29.904 78.3607 30.3567 78.552 30.898 78.552C31.1967 78.552 31.4673 78.5193 31.71 78.454C31.962 78.3887 32.1627 78.2673 32.312 78.09C32.4613 77.9033 32.536 77.6373 32.536 77.292C32.536 76.9933 32.4427 76.746 32.256 76.55C32.0693 76.3447 31.8267 76.1627 31.528 76.004C31.2387 75.8453 30.9307 75.6913 30.604 75.542C30.2773 75.3927 29.9647 75.2293 29.666 75.052C29.3767 74.8653 29.1387 74.6413 28.952 74.38C28.7653 74.1187 28.672 73.8013 28.672 73.428C28.672 72.9707 28.7887 72.5973 29.022 72.308C29.2647 72.0187 29.5727 71.804 29.946 71.664C30.3193 71.5147 30.7067 71.44 31.108 71.44C31.3693 71.44 31.6027 71.4727 31.808 71.538C32.0227 71.6033 32.2467 71.678 32.48 71.762C32.5547 71.79 32.6293 71.8087 32.704 71.818C32.7787 71.8273 32.8533 71.832 32.928 71.832C32.9747 71.832 33.0167 71.832 33.054 71.832C33.0913 71.832 33.1287 71.8273 33.166 71.818C33.194 71.986 33.2173 72.1587 33.236 72.336C33.264 72.504 33.2873 72.6767 33.306 72.854C33.3153 72.9193 33.3247 72.9987 33.334 73.092C33.3527 73.176 33.362 73.2553 33.362 73.33C33.362 73.3953 33.348 73.4653 33.32 73.54C33.292 73.6053 33.236 73.638 33.152 73.638C33.0867 73.638 33.0307 73.6333 32.984 73.624C32.9467 73.6053 32.914 73.5633 32.886 73.498C32.8393 73.4047 32.7973 73.3067 32.76 73.204C32.732 73.092 32.6993 72.9893 32.662 72.896C32.5407 72.5693 32.3307 72.308 32.032 72.112C31.7333 71.9067 31.4113 71.804 31.066 71.804C30.6273 71.804 30.296 71.9347 30.072 72.196C29.848 72.448 29.736 72.7887 29.736 73.218C29.736 73.3673 29.7733 73.512 29.848 73.652C29.932 73.792 30.0253 73.9133 30.128 74.016C30.324 74.2027 30.5527 74.3473 30.814 74.45C31.0847 74.5527 31.3413 74.6553 31.584 74.758C31.9013 74.898 32.228 75.066 32.564 75.262C32.9093 75.458 33.1987 75.696 33.432 75.976C33.6747 76.256 33.796 76.5967 33.796 76.998ZM53.19 71.608C53.19 71.7293 53.1294 71.79 53.008 71.79C52.896 71.7807 52.8027 71.776 52.728 71.776C52.616 71.776 52.5087 71.7947 52.406 71.832C52.3127 71.86 52.2427 71.93 52.196 72.042C52.1587 72.1447 52.1214 72.252 52.084 72.364C52.056 72.476 52.0234 72.5833 51.986 72.686L51.496 74.24L49.97 78.972L48.766 79.042C48.486 78.0807 48.2014 77.124 47.912 76.172C47.632 75.22 47.352 74.268 47.072 73.316C46.7827 74.2587 46.4934 75.2013 46.204 76.144C45.924 77.0867 45.6254 78.0293 45.308 78.972L44.062 79.042C43.866 78.2953 43.6607 77.5487 43.446 76.802C43.2407 76.0553 43.0447 75.3087 42.858 74.562C42.774 74.2073 42.6854 73.848 42.592 73.484C42.4987 73.12 42.4007 72.7653 42.298 72.42C42.2607 72.2893 42.2094 72.182 42.144 72.098C42.088 72.014 41.9807 71.972 41.822 71.972C41.7567 71.972 41.6867 71.9767 41.612 71.986C41.5467 71.9953 41.4767 72 41.402 72C41.3087 72 41.262 71.944 41.262 71.832C41.262 71.748 41.3087 71.692 41.402 71.664C41.5327 71.6267 41.682 71.6033 41.85 71.594C42.018 71.5847 42.172 71.5707 42.312 71.552C42.4707 71.5333 42.6294 71.51 42.788 71.482C42.9467 71.454 43.1007 71.44 43.25 71.44C43.334 71.44 43.3947 71.4913 43.432 71.594C43.4787 71.6873 43.5114 71.7947 43.53 71.916C43.558 72.028 43.5767 72.112 43.586 72.168C43.8194 73.2133 44.062 74.2493 44.314 75.276C44.566 76.3027 44.804 77.3387 45.028 78.384C45.2707 77.6093 45.4994 76.8393 45.714 76.074C45.938 75.2993 46.1574 74.5293 46.372 73.764C46.4374 73.5307 46.5027 73.302 46.568 73.078C46.6427 72.8447 46.708 72.6113 46.764 72.378C46.792 72.266 46.8154 72.1493 46.834 72.028C46.8527 71.9067 46.8807 71.79 46.918 71.678C46.9647 71.5567 47.0534 71.496 47.184 71.496C47.324 71.496 47.4407 71.496 47.534 71.496C47.6927 71.496 47.7814 71.566 47.8 71.706C47.828 71.8367 47.8607 71.9673 47.898 72.098C48.1967 73.1433 48.4907 74.1887 48.78 75.234C49.0787 76.27 49.3774 77.306 49.676 78.342C49.8907 77.6513 50.1007 76.9653 50.306 76.284C50.5114 75.5933 50.7074 74.898 50.894 74.198C50.9874 73.8713 51.0807 73.54 51.174 73.204C51.2674 72.8587 51.3514 72.518 51.426 72.182C51.4354 72.1353 51.44 72.0933 51.44 72.056C51.4494 72.0093 51.454 71.9673 51.454 71.93C51.454 71.846 51.3934 71.7947 51.272 71.776C51.1507 71.7573 51.0247 71.7527 50.894 71.762C50.7634 71.762 50.6747 71.762 50.628 71.762C50.5254 71.762 50.474 71.7107 50.474 71.608C50.474 71.5053 50.5207 71.454 50.614 71.454H53.036C53.1387 71.454 53.19 71.5053 53.19 71.608ZM65.8819 74.086C65.8726 73.7033 65.8399 73.3393 65.7839 72.994C65.7279 72.6393 65.5926 72.35 65.3779 72.126C65.1633 71.8927 64.8133 71.776 64.3279 71.776C63.8893 71.776 63.5299 71.8973 63.2499 72.14C62.9793 72.3733 62.7693 72.672 62.6199 73.036C62.4706 73.3907 62.3586 73.7547 62.2839 74.128C62.5173 74.1373 62.7459 74.1467 62.9699 74.156C63.1939 74.156 63.4179 74.156 63.6419 74.156C64.0153 74.156 64.3886 74.1513 64.7619 74.142C65.1353 74.1233 65.5086 74.1047 65.8819 74.086ZM67.4919 77.292C67.4919 77.3387 67.4826 77.3667 67.4639 77.376C67.4359 77.4693 67.3659 77.5813 67.2539 77.712C67.1513 77.8427 67.0346 77.9687 66.9039 78.09C66.7733 78.202 66.6659 78.286 66.5819 78.342C66.2739 78.5567 65.9239 78.7293 65.5319 78.86C65.1493 78.9907 64.7666 79.056 64.3839 79.056C64.0666 79.056 63.7119 79.0047 63.3199 78.902C62.9373 78.7993 62.6106 78.6593 62.3399 78.482C61.8173 78.1367 61.4346 77.684 61.1919 77.124C60.9493 76.564 60.8279 75.9807 60.8279 75.374C60.8279 74.6833 60.9633 74.044 61.2339 73.456C61.5046 72.868 61.9386 72.392 62.5359 72.028C62.8066 71.8693 63.1099 71.7387 63.4459 71.636C63.7819 71.524 64.1039 71.468 64.4119 71.468C64.9626 71.468 65.4479 71.58 65.8679 71.804C66.2879 72.028 66.6146 72.3453 66.8479 72.756C67.0906 73.1573 67.2119 73.638 67.2119 74.198C67.2119 74.3567 67.1746 74.4593 67.0999 74.506C67.0346 74.5527 66.9319 74.576 66.7919 74.576C66.6053 74.576 66.4186 74.5713 66.2319 74.562C66.0453 74.5527 65.8586 74.5433 65.6719 74.534C65.4106 74.5153 65.1493 74.506 64.8879 74.506C64.6359 74.506 64.3793 74.506 64.1179 74.506C63.8006 74.506 63.4833 74.506 63.1659 74.506C62.8486 74.506 62.5313 74.5153 62.2139 74.534C62.2046 74.6833 62.1953 74.828 62.1859 74.968C62.1766 75.108 62.1719 75.2527 62.1719 75.402C62.1719 75.7473 62.2139 76.1067 62.2979 76.48C62.3819 76.844 62.5173 77.1847 62.7039 77.502C62.8906 77.81 63.1286 78.062 63.4179 78.258C63.7073 78.4447 64.0573 78.538 64.4679 78.538C64.8879 78.538 65.2893 78.4727 65.6719 78.342C66.0546 78.2113 66.4046 78.0013 66.7219 77.712C66.8059 77.628 66.8806 77.5393 66.9459 77.446C67.0206 77.3433 67.0999 77.2547 67.1839 77.18C67.2306 77.1333 67.2819 77.11 67.3379 77.11C67.3846 77.11 67.4219 77.1287 67.4499 77.166C67.4779 77.2033 67.4919 77.2453 67.4919 77.292ZM80.5108 74.086C80.5015 73.7033 80.4688 73.3393 80.4128 72.994C80.3568 72.6393 80.2215 72.35 80.0068 72.126C79.7922 71.8927 79.4422 71.776 78.9568 71.776C78.5182 71.776 78.1588 71.8973 77.8788 72.14C77.6082 72.3733 77.3982 72.672 77.2488 73.036C77.0995 73.3907 76.9875 73.7547 76.9128 74.128C77.1462 74.1373 77.3748 74.1467 77.5988 74.156C77.8228 74.156 78.0468 74.156 78.2708 74.156C78.6442 74.156 79.0175 74.1513 79.3908 74.142C79.7642 74.1233 80.1375 74.1047 80.5108 74.086ZM82.1208 77.292C82.1208 77.3387 82.1115 77.3667 82.0928 77.376C82.0648 77.4693 81.9948 77.5813 81.8828 77.712C81.7802 77.8427 81.6635 77.9687 81.5328 78.09C81.4022 78.202 81.2948 78.286 81.2108 78.342C80.9028 78.5567 80.5528 78.7293 80.1608 78.86C79.7782 78.9907 79.3955 79.056 79.0128 79.056C78.6955 79.056 78.3408 79.0047 77.9488 78.902C77.5662 78.7993 77.2395 78.6593 76.9688 78.482C76.4462 78.1367 76.0635 77.684 75.8208 77.124C75.5782 76.564 75.4568 75.9807 75.4568 75.374C75.4568 74.6833 75.5922 74.044 75.8628 73.456C76.1335 72.868 76.5675 72.392 77.1648 72.028C77.4355 71.8693 77.7388 71.7387 78.0748 71.636C78.4108 71.524 78.7328 71.468 79.0408 71.468C79.5915 71.468 80.0768 71.58 80.4968 71.804C80.9168 72.028 81.2435 72.3453 81.4768 72.756C81.7195 73.1573 81.8408 73.638 81.8408 74.198C81.8408 74.3567 81.8035 74.4593 81.7288 74.506C81.6635 74.5527 81.5608 74.576 81.4208 74.576C81.2342 74.576 81.0475 74.5713 80.8608 74.562C80.6742 74.5527 80.4875 74.5433 80.3008 74.534C80.0395 74.5153 79.7782 74.506 79.5168 74.506C79.2648 74.506 79.0082 74.506 78.7468 74.506C78.4295 74.506 78.1122 74.506 77.7948 74.506C77.4775 74.506 77.1602 74.5153 76.8428 74.534C76.8335 74.6833 76.8242 74.828 76.8148 74.968C76.8055 75.108 76.8008 75.2527 76.8008 75.402C76.8008 75.7473 76.8428 76.1067 76.9268 76.48C77.0108 76.844 77.1462 77.1847 77.3328 77.502C77.5195 77.81 77.7575 78.062 78.0468 78.258C78.3362 78.4447 78.6862 78.538 79.0968 78.538C79.5168 78.538 79.9182 78.4727 80.3008 78.342C80.6835 78.2113 81.0335 78.0013 81.3508 77.712C81.4348 77.628 81.5095 77.5393 81.5748 77.446C81.6495 77.3433 81.7288 77.2547 81.8128 77.18C81.8595 77.1333 81.9108 77.11 81.9668 77.11C82.0135 77.11 82.0508 77.1287 82.0788 77.166C82.1068 77.2033 82.1208 77.2453 82.1208 77.292ZM94.5237 78.356C94.5237 78.44 94.4584 78.524 94.3277 78.608C94.2064 78.692 94.0571 78.7667 93.8797 78.832C93.7024 78.8973 93.5297 78.9487 93.3617 78.986C93.2031 79.0233 93.0864 79.042 93.0117 79.042C92.5264 79.042 92.1484 78.9813 91.8777 78.86C91.6164 78.7387 91.4297 78.538 91.3177 78.258C91.2151 77.978 91.1637 77.6 91.1637 77.124C91.1637 76.3493 91.1637 75.5747 91.1637 74.8C91.1731 74.016 91.1824 73.2367 91.1917 72.462H90.1837C90.1184 72.462 90.0624 72.4807 90.0157 72.518C89.9784 72.546 89.9364 72.56 89.8897 72.56C89.8431 72.56 89.8197 72.5273 89.8197 72.462C89.8197 72.4247 89.8431 72.35 89.8897 72.238C89.9457 72.126 89.9831 72.0513 90.0017 72.014C90.0297 72.0233 90.0717 72.028 90.1277 72.028H91.2197L91.2337 70.25C91.4484 70.11 91.6444 69.956 91.8217 69.788C91.9991 69.6107 92.1764 69.4333 92.3537 69.256C92.3724 69.2373 92.3911 69.2233 92.4097 69.214C92.4284 69.1953 92.4471 69.186 92.4657 69.186C92.5497 69.186 92.5917 69.2187 92.5917 69.284L92.5077 72.014C92.8064 72.014 93.1004 72.0093 93.3897 72C93.6884 71.9907 93.9824 71.986 94.2717 71.986C94.3931 71.986 94.4537 72.056 94.4537 72.196C94.4537 72.3733 94.3744 72.462 94.2157 72.462H92.5077C92.5077 73.1713 92.5031 73.8853 92.4937 74.604C92.4937 75.3133 92.4937 76.0273 92.4937 76.746V77.824C92.4937 78.0573 92.5917 78.2207 92.7877 78.314C92.9837 78.398 93.1751 78.44 93.3617 78.44C93.6231 78.44 93.8797 78.398 94.1317 78.314C94.1597 78.2953 94.2017 78.2767 94.2577 78.258C94.3137 78.2393 94.3557 78.23 94.3837 78.23C94.4771 78.23 94.5237 78.272 94.5237 78.356ZM107.433 76.998C107.433 77.418 107.339 77.7633 107.153 78.034C106.966 78.2953 106.723 78.496 106.425 78.636C106.126 78.776 105.799 78.874 105.445 78.93C105.09 78.986 104.745 79.014 104.409 79.014C104.101 79.014 103.793 78.9813 103.485 78.916C103.186 78.8507 102.883 78.804 102.575 78.776C102.509 78.524 102.444 78.272 102.379 78.02C102.323 77.768 102.257 77.5207 102.183 77.278C102.173 77.25 102.15 77.1847 102.113 77.082C102.085 76.9793 102.071 76.9233 102.071 76.914C102.071 76.8393 102.094 76.788 102.141 76.76C102.187 76.7227 102.243 76.704 102.309 76.704C102.374 76.704 102.421 76.7273 102.449 76.774C102.505 76.8393 102.551 76.928 102.589 77.04C102.635 77.152 102.677 77.25 102.715 77.334C102.789 77.4833 102.855 77.6 102.911 77.684C102.967 77.7587 103.055 77.8567 103.177 77.978C103.541 78.3607 103.993 78.552 104.535 78.552C104.833 78.552 105.104 78.5193 105.347 78.454C105.599 78.3887 105.799 78.2673 105.949 78.09C106.098 77.9033 106.173 77.6373 106.173 77.292C106.173 76.9933 106.079 76.746 105.893 76.55C105.706 76.3447 105.463 76.1627 105.165 76.004C104.875 75.8453 104.567 75.6913 104.241 75.542C103.914 75.3927 103.601 75.2293 103.303 75.052C103.013 74.8653 102.775 74.6413 102.589 74.38C102.402 74.1187 102.309 73.8013 102.309 73.428C102.309 72.9707 102.425 72.5973 102.659 72.308C102.901 72.0187 103.209 71.804 103.583 71.664C103.956 71.5147 104.343 71.44 104.745 71.44C105.006 71.44 105.239 71.4727 105.445 71.538C105.659 71.6033 105.883 71.678 106.117 71.762C106.191 71.79 106.266 71.8087 106.341 71.818C106.415 71.8273 106.49 71.832 106.565 71.832C106.611 71.832 106.653 71.832 106.691 71.832C106.728 71.832 106.765 71.8273 106.803 71.818C106.831 71.986 106.854 72.1587 106.873 72.336C106.901 72.504 106.924 72.6767 106.943 72.854C106.952 72.9193 106.961 72.9987 106.971 73.092C106.989 73.176 106.999 73.2553 106.999 73.33C106.999 73.3953 106.985 73.4653 106.957 73.54C106.929 73.6053 106.873 73.638 106.789 73.638C106.723 73.638 106.667 73.6333 106.621 73.624C106.583 73.6053 106.551 73.5633 106.523 73.498C106.476 73.4047 106.434 73.3067 106.397 73.204C106.369 73.092 106.336 72.9893 106.299 72.896C106.177 72.5693 105.967 72.308 105.669 72.112C105.37 71.9067 105.048 71.804 104.703 71.804C104.264 71.804 103.933 71.9347 103.709 72.196C103.485 72.448 103.373 72.7887 103.373 73.218C103.373 73.3673 103.41 73.512 103.485 73.652C103.569 73.792 103.662 73.9133 103.765 74.016C103.961 74.2027 104.189 74.3473 104.451 74.45C104.721 74.5527 104.978 74.6553 105.221 74.758C105.538 74.898 105.865 75.066 106.201 75.262C106.546 75.458 106.835 75.696 107.069 75.976C107.311 76.256 107.433 76.5967 107.433 76.998Z" fill="black"/>
<path d="M44.896 51.512C44.896 51.608 44.888 51.704 44.872 51.8C44.856 51.896 44.824 51.984 44.776 52.064C44.568 52.56 44.24 53.048 43.792 53.528C43.36 53.992 42.912 54.376 42.448 54.68C41.728 55.16 40.96 55.496 40.144 55.688C39.344 55.88 38.52 55.976 37.672 55.976C35.96 55.976 34.48 55.616 33.232 54.896C32 54.16 31.056 53.144 30.4 51.848C29.744 50.552 29.416 49.064 29.416 47.384C29.416 46.136 29.6 44.968 29.968 43.88C30.336 42.792 30.872 41.84 31.576 41.024C32.28 40.192 33.144 39.544 34.168 39.08C35.192 38.6 36.36 38.36 37.672 38.36C38.312 38.36 38.92 38.464 39.496 38.672C40.088 38.864 40.68 39.064 41.272 39.272C41.608 39.384 41.952 39.472 42.304 39.536C42.672 39.6 43.032 39.648 43.384 39.68C43.4 40.032 43.424 40.384 43.456 40.736C43.488 41.072 43.528 41.416 43.576 41.768C43.624 42.088 43.68 42.416 43.744 42.752C43.824 43.072 43.864 43.4 43.864 43.736C43.864 43.992 43.808 44.2 43.696 44.36C43.6 44.52 43.408 44.6 43.12 44.6C42.96 44.6 42.84 44.512 42.76 44.336C42.696 44.176 42.64 44.008 42.592 43.832C42.56 43.64 42.52 43.464 42.472 43.304C42.344 42.776 42.128 42.224 41.824 41.648C41.52 41.056 41.152 40.584 40.72 40.232C40.528 40.056 40.24 39.88 39.856 39.704C39.488 39.528 39.104 39.384 38.704 39.272C38.32 39.16 37.992 39.104 37.72 39.104C37.24 39.104 36.752 39.192 36.256 39.368C35.76 39.544 35.32 39.776 34.936 40.064C34.216 40.624 33.64 41.304 33.208 42.104C32.776 42.888 32.464 43.728 32.272 44.624C32.096 45.52 32.008 46.408 32.008 47.288C32.008 48.248 32.12 49.192 32.344 50.12C32.568 51.032 32.92 51.856 33.4 52.592C33.88 53.328 34.504 53.92 35.272 54.368C36.04 54.8 36.976 55.016 38.08 55.016C38.544 55.016 39.064 54.952 39.64 54.824C40.216 54.68 40.712 54.52 41.128 54.344C41.624 54.136 42.08 53.872 42.496 53.552C42.912 53.216 43.288 52.84 43.624 52.424C43.656 52.392 43.72 52.296 43.816 52.136C43.928 51.976 44.04 51.816 44.152 51.656C44.264 51.496 44.336 51.4 44.368 51.368C44.448 51.272 44.536 51.224 44.632 51.224C44.808 51.224 44.896 51.32 44.896 51.512ZM60.4146 55.736C60.4146 55.816 60.3746 55.88 60.2946 55.928C60.2146 55.96 60.1346 55.976 60.0546 55.976C59.6546 55.976 59.2466 55.968 58.8306 55.952C58.4306 55.92 58.0226 55.904 57.6066 55.904C57.1426 55.904 56.6706 55.92 56.1906 55.952C55.7266 55.984 55.2626 56 54.7986 56C54.7186 56 54.6626 55.952 54.6306 55.856C54.6146 55.744 54.6066 55.656 54.6066 55.592C54.6066 55.48 54.6626 55.424 54.7746 55.424C54.9506 55.424 55.1186 55.432 55.2786 55.448C55.4546 55.448 55.6226 55.448 55.7826 55.448C55.9906 55.448 56.1506 55.384 56.2626 55.256C56.3906 55.112 56.4626 54.944 56.4786 54.752C56.5106 54.352 56.5186 53.952 56.5026 53.552C56.5026 53.152 56.5026 52.76 56.5026 52.376C56.5026 51.896 56.5026 51.424 56.5026 50.96C56.5026 50.48 56.5026 50 56.5026 49.52C56.5026 49.04 56.5026 48.56 56.5026 48.08C56.5026 47.6 56.4866 47.12 56.4546 46.64C56.4386 46.432 56.4146 46.232 56.3826 46.04C56.3666 45.832 56.3266 45.632 56.2626 45.44C56.1026 45.008 55.8386 44.68 55.4706 44.456C55.1186 44.216 54.7106 44.096 54.2466 44.096C53.7026 44.096 53.1666 44.24 52.6386 44.528C52.1106 44.8 51.6706 45.144 51.3186 45.56C50.9346 46.008 50.6546 46.4 50.4786 46.736C50.3026 47.072 50.1906 47.424 50.1426 47.792C50.1106 48.16 50.0946 48.64 50.0946 49.232V53.456C50.0946 53.632 50.0866 53.88 50.0706 54.2C50.0706 54.52 50.1106 54.808 50.1906 55.064C50.2866 55.32 50.4706 55.448 50.7426 55.448C50.9026 55.448 51.0546 55.44 51.1986 55.424C51.3426 55.408 51.4946 55.4 51.6546 55.4C51.7986 55.4 51.8706 55.48 51.8706 55.64C51.8706 55.72 51.8546 55.8 51.8226 55.88C51.8066 55.944 51.7506 55.976 51.6546 55.976C51.1106 55.976 50.5506 55.968 49.9746 55.952C49.4146 55.92 48.8546 55.904 48.2946 55.904C47.7826 55.904 47.2626 55.928 46.7346 55.976C46.6706 55.976 46.6146 55.984 46.5666 56C46.5186 56 46.4626 56 46.3986 56C46.3186 56 46.2546 55.96 46.2066 55.88C46.1746 55.784 46.1586 55.704 46.1586 55.64C46.1586 55.464 46.2466 55.376 46.4226 55.376C46.5186 55.376 46.6146 55.384 46.7106 55.4C46.8066 55.4 46.9106 55.4 47.0226 55.4C47.2466 55.4 47.4786 55.368 47.7186 55.304C47.9746 55.224 48.1106 55.04 48.1266 54.752C48.1586 54.224 48.1666 53.696 48.1506 53.168C48.1506 52.64 48.1506 52.12 48.1506 51.608C48.1506 50.616 48.1506 49.632 48.1506 48.656C48.1666 47.68 48.1746 46.704 48.1746 45.728C48.1746 44.704 48.1666 43.688 48.1506 42.68C48.1346 41.656 48.1186 40.632 48.1026 39.608C48.1026 39.432 48.0706 39.24 48.0066 39.032C47.9426 38.808 47.7986 38.696 47.5746 38.696C47.3506 38.696 47.1186 38.712 46.8786 38.744C46.6386 38.776 46.3986 38.792 46.1586 38.792C46.0146 38.792 45.9426 38.728 45.9426 38.6C45.9426 38.456 46.0146 38.36 46.1586 38.312C46.4786 38.232 46.7906 38.168 47.0946 38.12C47.4146 38.072 47.7266 38.016 48.0306 37.952C48.3026 37.888 48.6226 37.8 48.9906 37.688C49.3746 37.56 49.6946 37.496 49.9506 37.496C50.0466 37.496 50.1026 37.528 50.1186 37.592C50.1346 37.64 50.1426 37.704 50.1426 37.784C50.1426 39.096 50.1426 40.408 50.1426 41.72C50.1426 43.032 50.1266 44.344 50.0946 45.656C50.4466 45.288 50.8706 44.92 51.3666 44.552C51.8786 44.184 52.4226 43.88 52.9986 43.64C53.5746 43.384 54.1186 43.256 54.6306 43.256C55.6706 43.256 56.4866 43.408 57.0786 43.712C57.6706 44.016 58.0866 44.488 58.3266 45.128C58.5666 45.752 58.6866 46.568 58.6866 47.576C58.6866 48.776 58.6786 49.976 58.6626 51.176C58.6626 52.36 58.6626 53.552 58.6626 54.752C58.6626 55.008 58.7266 55.192 58.8546 55.304C58.9986 55.4 59.1986 55.448 59.4546 55.448C59.5666 55.448 59.6706 55.44 59.7666 55.424C59.8786 55.408 59.9906 55.4 60.1026 55.4C60.1826 55.4 60.2546 55.44 60.3186 55.52C60.3826 55.584 60.4146 55.656 60.4146 55.736ZM69.3364 53.192C69.2724 52.472 69.2324 51.752 69.2164 51.032C69.2164 50.296 69.2084 49.56 69.1924 48.824H68.8564C68.3604 48.824 67.8084 48.904 67.2004 49.064C66.6084 49.208 66.0404 49.432 65.4964 49.736C64.9524 50.04 64.5044 50.424 64.1524 50.888C63.8164 51.336 63.6484 51.856 63.6484 52.448C63.6484 53.216 63.8644 53.8 64.2964 54.2C64.7284 54.584 65.3124 54.776 66.0484 54.776C66.4004 54.776 66.7844 54.696 67.2004 54.536C67.6164 54.36 68.0164 54.152 68.4004 53.912C68.7844 53.672 69.0964 53.432 69.3364 53.192ZM73.5364 54.728C73.5364 54.792 73.5284 54.84 73.5124 54.872C73.3524 55.224 73.0804 55.496 72.6964 55.688C72.3284 55.864 71.9604 55.952 71.5924 55.952C70.9204 55.952 70.4324 55.76 70.1284 55.376C69.8404 54.976 69.6084 54.488 69.4324 53.912C68.8244 54.472 68.1524 54.944 67.4164 55.328C66.6804 55.696 65.8884 55.88 65.0404 55.88C64.4484 55.88 63.8884 55.768 63.3604 55.544C62.8484 55.304 62.4324 54.96 62.1124 54.512C61.7924 54.064 61.6324 53.52 61.6324 52.88C61.6324 52.208 61.8004 51.632 62.1364 51.152C62.4884 50.656 62.9284 50.24 63.4564 49.904C64.0004 49.552 64.5764 49.272 65.1844 49.064C65.8084 48.84 66.3924 48.672 66.9364 48.56C67.3044 48.48 67.6804 48.408 68.0644 48.344C68.4484 48.28 68.8244 48.216 69.1924 48.152C69.1924 47.704 69.1684 47.184 69.1204 46.592C69.0884 46 68.9684 45.512 68.7604 45.128C68.5524 44.76 68.2724 44.432 67.9204 44.144C67.5684 43.856 67.1764 43.712 66.7444 43.712C66.0084 43.712 65.4324 43.904 65.0164 44.288C64.6004 44.672 64.3044 45.216 64.1284 45.92C64.1124 46 64.0964 46.088 64.0804 46.184C64.0804 46.264 64.0724 46.344 64.0564 46.424C64.0404 46.52 63.9764 46.608 63.8644 46.688C63.7684 46.752 63.6644 46.784 63.5524 46.784C63.2484 46.784 62.9684 46.712 62.7124 46.568C62.4724 46.424 62.3524 46.184 62.3524 45.848C62.3524 45.656 62.3844 45.488 62.4484 45.344C62.6564 44.848 62.9924 44.44 63.4564 44.12C63.9204 43.784 64.4324 43.528 64.9924 43.352C65.5684 43.176 66.1044 43.088 66.6004 43.088C67.4644 43.088 68.2484 43.248 68.9524 43.568C69.6564 43.888 70.2164 44.36 70.6324 44.984C71.0644 45.592 71.2804 46.36 71.2804 47.288C71.2804 48.328 71.2724 49.376 71.2564 50.432C71.2564 51.488 71.2884 52.544 71.3524 53.6C71.3684 53.952 71.4404 54.264 71.5684 54.536C71.6964 54.792 71.9604 54.92 72.3604 54.92C72.5684 54.92 72.7844 54.872 73.0084 54.776C73.2484 54.664 73.4004 54.608 73.4644 54.608C73.5124 54.608 73.5364 54.648 73.5364 54.728ZM84.1431 45.32C84.1431 45.48 84.0791 45.632 83.9511 45.776C83.8391 45.904 83.6951 45.968 83.5191 45.968C83.2791 45.968 83.1031 45.888 82.9911 45.728C82.8951 45.568 82.8071 45.384 82.7271 45.176C82.6631 44.968 82.5591 44.784 82.4151 44.624C82.2711 44.464 82.0311 44.384 81.6951 44.384C81.6311 44.384 81.5671 44.384 81.5031 44.384C81.4551 44.384 81.3991 44.392 81.3351 44.408C81.0631 44.456 80.7671 44.624 80.4471 44.912C80.1271 45.2 79.8151 45.544 79.5111 45.944C79.2231 46.328 78.9831 46.712 78.7911 47.096C78.5991 47.48 78.4951 47.8 78.4791 48.056C78.4631 48.312 78.4551 48.568 78.4551 48.824C78.4551 49.064 78.4551 49.304 78.4551 49.544C78.4551 50.408 78.4551 51.272 78.4551 52.136C78.4711 53 78.4791 53.856 78.4791 54.704C78.4791 54.944 78.5751 55.12 78.7671 55.232C78.9751 55.328 79.1831 55.376 79.3911 55.376C79.5511 55.376 79.7111 55.368 79.8711 55.352C80.0311 55.336 80.1911 55.328 80.3511 55.328C80.4311 55.328 80.4871 55.368 80.5191 55.448C80.5511 55.512 80.5671 55.576 80.5671 55.64C80.5671 55.896 80.4391 56.024 80.1831 56.024C79.7031 56.024 79.2231 56.016 78.7431 56C78.2631 55.968 77.7831 55.952 77.3031 55.952C76.8071 55.952 76.3031 55.968 75.7911 56C75.2951 56.032 74.7911 56.048 74.2791 56.048C74.2151 56.048 74.1671 56 74.1351 55.904C74.1191 55.808 74.1111 55.728 74.1111 55.664C74.1111 55.504 74.1751 55.416 74.3031 55.4C74.4791 55.368 74.6631 55.36 74.8551 55.376C75.0471 55.392 75.2231 55.4 75.3831 55.4C75.6231 55.4 75.8151 55.352 75.9591 55.256C76.1191 55.144 76.2071 54.96 76.2231 54.704C76.2551 54.192 76.2711 53.672 76.2711 53.144C76.2871 52.616 76.2951 52.088 76.2951 51.56V49.232C76.2791 48.544 76.2711 47.864 76.2711 47.192C76.2871 46.504 76.2631 45.824 76.1991 45.152C76.1831 44.832 76.0951 44.608 75.9351 44.48C75.7751 44.336 75.5351 44.264 75.2151 44.264C75.0871 44.264 74.9511 44.28 74.8071 44.312C74.6791 44.328 74.5431 44.336 74.3991 44.336C74.2711 44.336 74.2071 44.24 74.2071 44.048C74.2071 43.936 74.2631 43.856 74.3751 43.808C74.5351 43.76 74.7031 43.728 74.8791 43.712C75.0551 43.68 75.2231 43.656 75.3831 43.64C75.8151 43.56 76.2471 43.48 76.6791 43.4C77.1111 43.32 77.5431 43.224 77.9751 43.112C78.1191 43.16 78.2231 43.248 78.2871 43.376C78.3191 43.44 78.3431 43.616 78.3591 43.904C78.3751 44.192 78.3831 44.528 78.3831 44.912C78.3831 45.28 78.3831 45.632 78.3831 45.968C78.3831 46.288 78.3831 46.512 78.3831 46.64C78.7351 46.08 79.1351 45.52 79.5831 44.96C80.0311 44.4 80.5431 43.936 81.1191 43.568C81.6951 43.2 82.3431 43.016 83.0631 43.016C83.4471 43.016 83.6951 43.136 83.8071 43.376C83.9191 43.616 83.9911 43.896 84.0231 44.216C84.0551 44.392 84.0791 44.576 84.0951 44.768C84.1271 44.96 84.1431 45.144 84.1431 45.32ZM91.9272 55.688C91.9272 55.768 91.9032 55.848 91.8552 55.928C91.8232 55.992 91.7592 56.024 91.6632 56.024C91.1672 56.024 90.6632 56.016 90.1512 56C89.6392 55.968 89.1272 55.952 88.6152 55.952H87.7752C87.4392 55.952 87.1032 55.968 86.7672 56C86.4312 56.016 86.0952 56.024 85.7592 56.024C85.6952 56.024 85.6472 56 85.6152 55.952C85.5992 55.888 85.5912 55.832 85.5912 55.784C85.5912 55.736 85.5912 55.688 85.5912 55.64C85.5912 55.592 85.5992 55.544 85.6152 55.496C85.6472 55.432 85.7352 55.4 85.8792 55.4C86.0392 55.384 86.1992 55.384 86.3592 55.4C86.5352 55.4 86.6472 55.4 86.6952 55.4C86.9192 55.4 87.1192 55.352 87.2952 55.256C87.4712 55.144 87.5592 54.96 87.5592 54.704C87.5592 53.472 87.5672 52.248 87.5832 51.032C87.5992 49.8 87.6072 48.576 87.6072 47.36C87.6072 46.112 87.5992 44.864 87.5832 43.616C87.5832 42.352 87.5832 41.096 87.5832 39.848C87.5832 39.736 87.5752 39.616 87.5592 39.488C87.5432 39.344 87.4952 39.232 87.4152 39.152C87.3512 39.072 87.2872 39.032 87.2232 39.032C87.1592 39.016 87.0792 39.008 86.9832 39.008C86.6952 39.008 86.4072 39.056 86.1192 39.152C85.8472 39.248 85.5752 39.296 85.3032 39.296C85.1272 39.296 85.0392 39.192 85.0392 38.984C85.0392 38.856 85.1352 38.768 85.3272 38.72C85.5352 38.672 85.6952 38.64 85.8072 38.624C86.3672 38.496 86.9752 38.352 87.6312 38.192C88.2872 38.032 88.8792 37.848 89.4072 37.64C89.4392 37.64 89.4712 37.632 89.5032 37.616C89.5352 37.6 89.5592 37.592 89.5752 37.592C89.6712 37.592 89.7272 37.624 89.7432 37.688C89.7752 37.752 89.7912 37.824 89.7912 37.904C89.7912 38.352 89.7832 38.8 89.7672 39.248C89.7672 39.68 89.7672 40.12 89.7672 40.568V47.288C89.7672 48.52 89.7752 49.76 89.7912 51.008C89.8072 52.24 89.8152 53.472 89.8152 54.704C89.8152 54.96 89.9192 55.144 90.1272 55.256C90.3512 55.352 90.5672 55.4 90.7752 55.4C90.9512 55.4 91.1192 55.392 91.2792 55.376C91.4392 55.36 91.5992 55.352 91.7592 55.352C91.8392 55.352 91.8872 55.4 91.9032 55.496C91.9192 55.576 91.9272 55.64 91.9272 55.688ZM103.968 49.664C103.968 48.976 103.912 48.288 103.8 47.6C103.704 46.896 103.512 46.248 103.224 45.656C102.952 45.064 102.552 44.592 102.024 44.24C101.496 43.872 100.808 43.688 99.9601 43.688C99.1601 43.688 98.5041 43.88 97.9921 44.264C97.4961 44.648 97.1041 45.144 96.8161 45.752C96.5441 46.36 96.3521 47.016 96.2401 47.72C96.1441 48.424 96.0961 49.088 96.0961 49.712C96.0961 50.4 96.1441 51.088 96.2401 51.776C96.3521 52.464 96.5521 53.088 96.8401 53.648C97.1281 54.192 97.5361 54.632 98.0641 54.968C98.6081 55.304 99.3041 55.472 100.152 55.472C100.984 55.472 101.648 55.296 102.144 54.944C102.656 54.592 103.04 54.128 103.296 53.552C103.568 52.976 103.744 52.352 103.824 51.68C103.92 50.992 103.968 50.32 103.968 49.664ZM106.44 49.736C106.44 50.936 106.152 52.016 105.576 52.976C105.016 53.936 104.248 54.696 103.272 55.256C102.312 55.816 101.232 56.096 100.032 56.096C98.8641 56.096 97.8081 55.816 96.8641 55.256C95.9201 54.68 95.1681 53.92 94.6081 52.976C94.0481 52.016 93.7681 50.952 93.7681 49.784C93.7681 48.584 94.0401 47.48 94.5841 46.472C95.1281 45.448 95.8721 44.624 96.8161 44C97.7761 43.376 98.8801 43.064 100.128 43.064C101.472 43.064 102.616 43.352 103.56 43.928C104.504 44.488 105.216 45.272 105.696 46.28C106.192 47.272 106.44 48.424 106.44 49.736ZM116.283 54.896C116.283 55.04 116.171 55.184 115.947 55.328C115.739 55.472 115.483 55.6 115.179 55.712C114.875 55.824 114.579 55.912 114.291 55.976C114.019 56.04 113.819 56.072 113.691 56.072C112.859 56.072 112.211 55.968 111.747 55.76C111.299 55.552 110.979 55.208 110.787 54.728C110.611 54.248 110.523 53.6 110.523 52.784C110.523 51.456 110.523 50.128 110.523 48.8C110.539 47.456 110.555 46.12 110.571 44.792H108.843C108.731 44.792 108.635 44.824 108.555 44.888C108.491 44.936 108.419 44.96 108.339 44.96C108.259 44.96 108.219 44.904 108.219 44.792C108.219 44.728 108.259 44.6 108.339 44.408C108.435 44.216 108.499 44.088 108.531 44.024C108.579 44.04 108.651 44.048 108.747 44.048H110.619L110.643 41C111.011 40.76 111.347 40.496 111.651 40.208C111.955 39.904 112.259 39.6 112.563 39.296C112.595 39.264 112.627 39.24 112.659 39.224C112.691 39.192 112.723 39.176 112.755 39.176C112.899 39.176 112.971 39.232 112.971 39.344L112.827 44.024C113.339 44.024 113.843 44.016 114.339 44C114.851 43.984 115.355 43.976 115.851 43.976C116.059 43.976 116.163 44.096 116.163 44.336C116.163 44.64 116.027 44.792 115.755 44.792H112.827C112.827 46.008 112.819 47.232 112.803 48.464C112.803 49.68 112.803 50.904 112.803 52.136V53.984C112.803 54.384 112.971 54.664 113.307 54.824C113.643 54.968 113.971 55.04 114.291 55.04C114.739 55.04 115.179 54.968 115.611 54.824C115.659 54.792 115.731 54.76 115.827 54.728C115.923 54.696 115.995 54.68 116.043 54.68C116.203 54.68 116.283 54.752 116.283 54.896ZM125.213 54.896C125.213 55.04 125.101 55.184 124.877 55.328C124.669 55.472 124.413 55.6 124.109 55.712C123.805 55.824 123.509 55.912 123.221 55.976C122.949 56.04 122.749 56.072 122.621 56.072C121.789 56.072 121.141 55.968 120.677 55.76C120.229 55.552 119.909 55.208 119.717 54.728C119.541 54.248 119.453 53.6 119.453 52.784C119.453 51.456 119.453 50.128 119.453 48.8C119.469 47.456 119.485 46.12 119.501 44.792H117.773C117.661 44.792 117.565 44.824 117.485 44.888C117.421 44.936 117.349 44.96 117.269 44.96C117.189 44.96 117.149 44.904 117.149 44.792C117.149 44.728 117.189 44.6 117.269 44.408C117.365 44.216 117.429 44.088 117.461 44.024C117.509 44.04 117.581 44.048 117.677 44.048H119.549L119.573 41C119.941 40.76 120.277 40.496 120.581 40.208C120.885 39.904 121.189 39.6 121.493 39.296C121.525 39.264 121.557 39.24 121.589 39.224C121.621 39.192 121.653 39.176 121.685 39.176C121.829 39.176 121.901 39.232 121.901 39.344L121.757 44.024C122.269 44.024 122.773 44.016 123.269 44C123.781 43.984 124.285 43.976 124.781 43.976C124.989 43.976 125.093 44.096 125.093 44.336C125.093 44.64 124.957 44.792 124.685 44.792H121.757C121.757 46.008 121.749 47.232 121.733 48.464C121.733 49.68 121.733 50.904 121.733 52.136V53.984C121.733 54.384 121.901 54.664 122.237 54.824C122.573 54.968 122.901 55.04 123.221 55.04C123.669 55.04 124.109 54.968 124.541 54.824C124.589 54.792 124.661 54.76 124.757 54.728C124.853 54.696 124.925 54.68 124.973 54.68C125.133 54.68 125.213 54.752 125.213 54.896ZM135.198 47.576C135.182 46.92 135.126 46.296 135.03 45.704C134.934 45.096 134.702 44.6 134.334 44.216C133.966 43.816 133.366 43.616 132.534 43.616C131.782 43.616 131.166 43.824 130.686 44.24C130.222 44.64 129.862 45.152 129.606 45.776C129.35 46.384 129.158 47.008 129.03 47.648C129.43 47.664 129.822 47.68 130.206 47.696C130.59 47.696 130.974 47.696 131.358 47.696C131.998 47.696 132.638 47.688 133.278 47.672C133.918 47.64 134.558 47.608 135.198 47.576ZM137.958 53.072C137.958 53.152 137.942 53.2 137.91 53.216C137.862 53.376 137.742 53.568 137.55 53.792C137.374 54.016 137.174 54.232 136.95 54.44C136.726 54.632 136.542 54.776 136.398 54.872C135.87 55.24 135.27 55.536 134.598 55.76C133.942 55.984 133.286 56.096 132.63 56.096C132.086 56.096 131.478 56.008 130.806 55.832C130.15 55.656 129.59 55.416 129.126 55.112C128.23 54.52 127.574 53.744 127.158 52.784C126.742 51.824 126.534 50.824 126.534 49.784C126.534 48.6 126.766 47.504 127.23 46.496C127.694 45.488 128.438 44.672 129.462 44.048C129.926 43.776 130.446 43.552 131.022 43.376C131.598 43.184 132.15 43.088 132.678 43.088C133.622 43.088 134.454 43.28 135.174 43.664C135.894 44.048 136.454 44.592 136.854 45.296C137.27 45.984 137.478 46.808 137.478 47.768C137.478 48.04 137.414 48.216 137.286 48.296C137.174 48.376 136.998 48.416 136.758 48.416C136.438 48.416 136.118 48.408 135.798 48.392C135.478 48.376 135.158 48.36 134.838 48.344C134.39 48.312 133.942 48.296 133.494 48.296C133.062 48.296 132.622 48.296 132.174 48.296C131.63 48.296 131.086 48.296 130.542 48.296C129.998 48.296 129.454 48.312 128.91 48.344C128.894 48.6 128.878 48.848 128.862 49.088C128.846 49.328 128.838 49.576 128.838 49.832C128.838 50.424 128.91 51.04 129.054 51.68C129.198 52.304 129.43 52.888 129.75 53.432C130.07 53.96 130.478 54.392 130.974 54.728C131.47 55.048 132.07 55.208 132.774 55.208C133.494 55.208 134.182 55.096 134.838 54.872C135.494 54.648 136.094 54.288 136.638 53.792C136.782 53.648 136.91 53.496 137.022 53.336C137.15 53.16 137.286 53.008 137.43 52.88C137.51 52.8 137.598 52.76 137.694 52.76C137.774 52.76 137.838 52.792 137.886 52.856C137.934 52.92 137.958 52.992 137.958 53.072Z" fill="black"/>
<line x1="139" y1="63.5" x2="28" y2="63.5" stroke="black"/>
<path d="M127.803 76.3729L127.804 76.3728C127.792 76.3589 127.779 76.3456 127.767 76.3317C127.706 76.2631 127.645 76.1951 127.583 76.1277L127.583 76.1276C126.734 76.1948 125.838 76.1338 124.871 75.9435C123.995 75.7712 123.381 75.4846 122.906 75.0219C122.891 75.0072 122.871 74.9983 122.851 74.9965C122.83 74.9948 122.809 75.0005 122.792 75.0125C121.546 75.8876 120.238 76.1628 119.01 76.1629C118.685 76.1629 118.366 76.1436 118.056 76.1112L118.056 76.1113C117.998 76.1744 117.94 76.238 117.883 76.3022C117.869 76.3181 117.855 76.3333 117.841 76.3493L117.842 76.3494C116.969 77.3395 116.106 78.5781 115.301 80.0714C115.101 80.4579 114.584 81.3819 114.748 81.5086C114.935 81.7572 115.432 81.2836 115.948 80.8442C116.429 80.4267 116.925 80.0412 117.093 80.2383C117.251 80.4211 117.102 81.1933 116.986 82.0148C116.859 82.8642 116.769 83.7628 116.933 83.9596C116.987 84.0682 117.107 83.9584 117.228 83.6204C117.463 83.0159 117.702 82.4276 117.95 81.8727C119.301 78.8624 120.864 76.8262 122.314 75.8243C122.407 75.7407 122.655 75.6137 122.812 75.5132H122.812C122.969 75.6137 123.217 75.7407 123.31 75.8243C124.76 76.8262 126.323 78.8624 127.674 81.8727C127.922 82.4276 128.161 83.0158 128.397 83.6204C128.517 83.9584 128.637 84.0683 128.691 83.9596C128.855 83.7627 128.765 82.8642 128.638 82.0148C128.523 81.1933 128.373 80.4211 128.531 80.2383C128.699 80.0412 129.195 80.4266 129.676 80.8442C130.192 81.2836 130.689 81.7572 130.876 81.5086C131.04 81.3819 130.523 80.4579 130.323 80.0714C129.525 78.5899 128.669 77.359 127.803 76.3729ZM123.249 73.0824C123.2 73.1286 123.246 73.2099 123.311 73.1916C123.404 73.1654 123.488 73.1397 123.547 73.1201C123.991 72.971 124.431 72.8368 124.857 72.7071C126.166 72.3085 127.402 71.932 128.532 71.1928C128.858 70.9796 129.169 70.655 129.408 70.2789C129.657 69.8875 129.672 69.4648 129.451 69.1151C129.448 69.1135 129.445 69.1119 129.441 69.1103C129.427 69.1037 129.413 69.0975 129.399 69.0915C129.392 69.0889 129.386 69.0865 129.379 69.084C129.366 69.0788 129.353 69.0737 129.339 69.069C129.331 69.0664 129.323 69.0641 129.315 69.0616C129.303 69.0575 129.29 69.0534 129.277 69.0498C129.268 69.0473 129.259 69.0453 129.25 69.043C129.237 69.0399 129.225 69.0366 129.212 69.0339C129.202 69.0318 129.192 69.0302 129.182 69.0283C129.17 69.026 129.158 69.0235 129.145 69.0215C129.133 69.0196 129.12 69.0183 129.107 69.0166C129.089 69.0142 129.07 69.0123 129.051 69.0108C129.037 69.0096 129.022 69.0084 129.008 69.0076C128.997 69.0071 128.986 69.0071 128.975 69.0068C128.962 69.0065 128.949 69.006 128.936 69.0061C128.919 69.0061 128.902 69.0068 128.884 69.0075C128.876 69.0078 128.867 69.0078 128.859 69.0083C128.84 69.0093 128.821 69.0109 128.802 69.0126C128.795 69.0133 128.788 69.0137 128.78 69.0145C128.758 69.0168 128.735 69.0198 128.713 69.0231C128.709 69.0237 128.704 69.0241 128.7 69.0247C128.673 69.0289 128.646 69.0337 128.618 69.0392C128.401 69.0825 128.178 69.1555 127.955 69.2533C127.757 69.34 127.567 69.4422 127.386 69.5587C127.24 69.6527 127.095 69.7491 126.952 69.848C126.944 69.854 126.935 69.8598 126.926 69.8658C126.897 69.8862 126.868 69.907 126.839 69.9275C126.794 69.9596 126.748 69.9916 126.703 70.024C126.334 70.2901 125.985 70.5682 125.658 70.8554C125.593 70.9127 125.528 70.9702 125.464 71.0279C125.245 71.2236 125.027 71.421 124.811 71.6199C124.438 71.9638 124.065 72.3143 123.681 72.6765C123.539 72.81 123.395 72.9458 123.249 73.0824ZM116.21 70.3104C116.45 70.6619 116.816 71.0131 117.268 71.3259C118.077 71.8859 119.021 72.2063 119.934 72.5162C120.105 72.5743 120.276 72.6323 120.446 72.692C120.525 72.7196 120.608 72.7492 120.694 72.7798C121.185 72.9544 121.766 73.1609 122.279 73.2577C122.365 73.274 122.422 73.1703 122.36 73.1075C122.177 72.9202 121.974 72.7138 121.827 72.5694C121.801 72.5439 121.774 72.518 121.748 72.4927L121.743 72.4881L121.587 72.3382C120.594 71.3866 119.567 70.4027 118.383 69.6565C117.879 69.3395 117.441 69.14 117.043 69.0462C117.004 69.0373 116.967 69.03 116.929 69.0236C116.916 69.0214 116.902 69.0195 116.889 69.0176C116.85 69.0118 116.811 69.0074 116.771 69.0044C116.752 69.0029 116.733 69.0023 116.714 69.0016C116.697 69.001 116.68 69 116.663 69C116.567 69 116.475 69.0104 116.388 69.0299C116.38 69.0317 116.372 69.0332 116.364 69.0352C116.342 69.0405 116.321 69.0469 116.3 69.0534C116.289 69.057 116.277 69.0605 116.266 69.0644C116.248 69.0707 116.231 69.0777 116.213 69.085C116.188 69.0954 116.164 69.1069 116.14 69.1195C116.128 69.1255 116.118 69.1348 116.111 69.1462C115.912 69.4946 115.948 69.9264 116.21 70.3104Z" fill="#FF4F44"/>
<path d="M122.811 74.7787C122.829 74.7657 122.851 74.7598 122.873 74.7621C122.895 74.7644 122.915 74.7747 122.93 74.7911C123.393 75.289 124.002 75.5903 124.905 75.768C126.259 76.0344 127.469 76.0444 128.603 75.7985C129.939 75.509 130.816 74.9578 131.364 74.064C131.61 73.6612 131.683 73.2978 131.574 73.0131C131.464 72.728 131.182 72.5161 130.733 72.3831C130.106 72.1968 129.907 71.9358 129.917 71.3087C129.92 71.1004 129.951 70.8921 129.981 70.6907C129.996 70.5901 130.012 70.4861 130.024 70.3845C130.074 69.948 129.973 69.5752 129.739 69.3252C129.739 69.3252 129.739 69.3252 129.739 69.3253C129.835 69.6626 129.774 70.0356 129.559 70.3747C129.306 70.7718 128.976 71.1154 128.63 71.3423C127.478 72.0954 126.23 72.4756 124.909 72.878C124.484 73.0073 124.045 73.1411 123.603 73.2894C123.444 73.3431 122.963 73.4819 122.777 73.4913L122.776 73.4912L122.773 73.4912C122.773 73.4912 122.772 73.4914 122.771 73.4914C122.14 73.4835 121.305 73.1866 120.635 72.9481C120.549 72.9176 120.466 72.8882 120.387 72.8606C120.217 72.8012 120.047 72.7433 119.876 72.6854C118.952 72.3716 117.995 72.0471 117.166 71.4728C116.69 71.143 116.318 70.7858 116.062 70.4112C115.834 70.0772 115.757 69.7095 115.834 69.3732C115.834 69.3732 115.834 69.3731 115.833 69.3732C115.648 69.6105 115.563 69.9457 115.592 70.3386C115.601 70.4655 115.625 70.596 115.648 70.7221C115.671 70.8515 115.696 70.9854 115.706 71.1204C115.763 71.8686 115.536 72.1933 114.807 72.4072C114.437 72.5157 114.181 72.7149 114.066 72.9832C113.953 73.2501 113.986 73.5705 114.162 73.9098C114.206 73.9942 114.261 74.0773 114.314 74.1577L114.33 74.1824C114.848 74.9673 115.626 75.4767 116.643 75.6965C119.277 76.2657 121.179 75.9827 122.811 74.7787Z" fill="#FF4F44"/>
</svg>
