<svg width="38" height="38" viewBox="0 0 38 38" fill="none" xmlns="http://www.w3.org/2000/svg">
<path d="M28.8276 34.0691V5.24154C28.8276 3.80016 27.6483 2.62085 26.2069 2.62085H2.62069C1.17931 2.62085 0 3.80016 0 5.24154V34.0691C0 35.5105 1.17931 36.6898 2.62069 36.6898H26.2069C26.9019 36.6898 27.5685 36.4137 28.06 35.9222C28.5515 35.4308 28.8276 34.7642 28.8276 34.0691Z" fill="#AD6D40"/>
<path d="M25.5516 5.24121H3.27578C2.91394 5.24121 2.62061 5.53454 2.62061 5.89638V33.4136C2.62061 33.7755 2.91394 34.0688 3.27578 34.0688H25.5516C25.9135 34.0688 26.2068 33.7755 26.2068 33.4136V5.89638C26.2068 5.53454 25.9135 5.24121 25.5516 5.24121Z" fill="#F8F8FF"/>
<path d="M19.6551 2.62069V4.58621C19.6551 5.3069 19.0655 5.89655 18.3448 5.89655H10.4827C9.76202 5.89655 9.17236 5.3069 9.17236 4.58621V2.62069C9.17236 2.26034 9.46719 1.96552 9.82754 1.96552H11.8782C12.1665 0.832069 13.1951 0 14.4137 0C15.6324 0 16.661 0.832069 16.9493 1.96552H18.9999C19.3603 1.96552 19.6551 2.26034 19.6551 2.62069Z" fill="#CBCBF4"/>
<path d="M38 18.9741V36.69C38 37.4107 37.4103 38.0003 36.6896 38.0003H17.0345C16.3138 38.0003 15.7241 37.4107 15.7241 36.69V18.9741H38Z" fill="#EA9453"/>
<path d="M37.8001 18.5001L33.9123 14.6123C33.8495 14.5494 33.775 14.4995 33.6929 14.4655C33.6108 14.4314 33.5229 14.4139 33.434 14.4138H20.2906C20.2017 14.4138 20.1137 14.4313 20.0317 14.4654C19.9496 14.4994 19.8751 14.5494 19.8123 14.6123L15.9245 18.5001C15.498 18.9266 15.8001 19.6552 16.4028 19.6552H37.3225C37.9252 19.6552 38.2266 18.9266 37.8001 18.5001Z" fill="#FCB36B"/>
<path d="M30.1379 19.6552V24.2414C30.1379 24.4151 30.0689 24.5818 29.946 24.7047C29.8231 24.8275 29.6565 24.8966 29.4827 24.8966H24.2414C24.0676 24.8966 23.9009 24.8275 23.7781 24.7047C23.6552 24.5818 23.5862 24.4151 23.5862 24.2414V19.6552L24.2414 19H29.4827L30.1379 19.6552Z" fill="#723535"/>
<path d="M22.2758 32.1033H18.9999C18.6381 32.1033 18.3447 32.3966 18.3447 32.7584V34.724C18.3447 35.0858 18.6381 35.3791 18.9999 35.3791H22.2758C22.6376 35.3791 22.9309 35.0858 22.9309 34.724V32.7584C22.9309 32.3966 22.6376 32.1033 22.2758 32.1033Z" fill="white"/>
<path d="M30.1379 19.6552L28.1724 14.4138H25.5517L23.5862 19.6552H30.1379Z" fill="#914747"/>
<path d="M31.2563 31.6403C31.1955 31.5794 31.1233 31.5311 31.0438 31.4982C30.9643 31.4652 30.8791 31.4482 30.7931 31.4482C30.707 31.4482 30.6218 31.4652 30.5423 31.4982C30.4629 31.5311 30.3907 31.5794 30.3299 31.6403L29.6747 32.2955C29.5828 32.387 29.5201 32.5038 29.4947 32.6309C29.4692 32.7581 29.4821 32.89 29.5317 33.0098C29.5814 33.1297 29.6655 33.232 29.7734 33.304C29.8813 33.3759 30.0082 33.4142 30.1379 33.4139V35.3794C30.1379 35.5532 30.2069 35.7198 30.3298 35.8427C30.4527 35.9656 30.6193 36.0346 30.7931 36.0346C30.9668 36.0346 31.1335 35.9656 31.2563 35.8427C31.3792 35.7198 31.4482 35.5532 31.4482 35.3794V33.4139C31.5779 33.4142 31.7048 33.3759 31.8127 33.304C31.9206 33.232 32.0048 33.1297 32.0544 33.0098C32.104 32.89 32.1169 32.7581 32.0915 32.6309C32.066 32.5038 32.0034 32.387 31.9114 32.2955L31.2563 31.6403ZM35.8425 32.2955L35.1873 31.6403C35.1265 31.5794 35.0543 31.5311 34.9748 31.4982C34.8954 31.4652 34.8101 31.4482 34.7241 31.4482C34.6381 31.4482 34.5529 31.4652 34.4734 31.4982C34.3939 31.5311 34.3217 31.5794 34.2609 31.6403L33.6057 32.2955C33.5138 32.387 33.4511 32.5038 33.4257 32.6309C33.4002 32.7581 33.4132 32.89 33.4628 33.0098C33.5124 33.1297 33.5965 33.232 33.7044 33.304C33.8124 33.3759 33.9392 33.4142 34.0689 33.4139V35.3794C34.0689 35.5532 34.138 35.7198 34.2608 35.8427C34.3837 35.9656 34.5503 36.0346 34.7241 36.0346C34.8979 36.0346 35.0645 35.9656 35.1874 35.8427C35.3102 35.7198 35.3793 35.5532 35.3793 35.3794V33.4139C35.509 33.4142 35.6358 33.3759 35.7438 33.304C35.8517 33.232 35.9358 33.1297 35.9854 33.0098C36.0351 32.89 36.048 32.7581 36.0225 32.6309C35.9971 32.5038 35.9344 32.387 35.8425 32.2955Z" fill="#20295E"/>
<path d="M8.51718 14.4137C8.43113 14.4137 8.34591 14.3968 8.26642 14.3639C8.18693 14.3309 8.11473 14.2826 8.05397 14.2217L6.74362 12.9113C6.62077 12.7885 6.55176 12.6219 6.55176 12.4481C6.55176 12.2744 6.62077 12.1078 6.74362 11.9849C6.86647 11.8621 7.0331 11.7931 7.20683 11.7931C7.38057 11.7931 7.54719 11.8621 7.67004 11.9849L8.41562 12.7305L10.5928 9.46448C10.6405 9.3929 10.7019 9.33142 10.7734 9.28356C10.8449 9.2357 10.9252 9.20239 11.0095 9.18554C11.0939 9.16869 11.1808 9.16862 11.2652 9.18534C11.3496 9.20207 11.4299 9.23525 11.5015 9.283C11.5731 9.33075 11.6345 9.39214 11.6824 9.46365C11.7303 9.53516 11.7636 9.61539 11.7804 9.69978C11.7973 9.78416 11.7973 9.87104 11.7806 9.95544C11.7639 10.0399 11.7307 10.1201 11.683 10.1917L9.06228 14.1228C9.00243 14.2125 8.92137 14.286 8.82628 14.3369C8.73119 14.3877 8.62501 14.4137 8.51718 14.4137ZM8.51718 22.2757C8.43113 22.2758 8.34591 22.2589 8.26642 22.226C8.18693 22.193 8.11473 22.1447 8.05397 22.0838L6.74362 20.7734C6.6828 20.7126 6.63454 20.6404 6.60162 20.5609C6.5687 20.4814 6.55176 20.3962 6.55176 20.3102C6.55176 20.2242 6.5687 20.139 6.60162 20.0595C6.63454 19.98 6.6828 19.9078 6.74362 19.847C6.80445 19.7862 6.87667 19.7379 6.95615 19.705C7.03562 19.6721 7.12081 19.6551 7.20683 19.6551C7.29286 19.6551 7.37804 19.6721 7.45752 19.705C7.53699 19.7379 7.60921 19.7862 7.67004 19.847L8.41562 20.5926L10.5928 17.3266C10.6892 17.182 10.8391 17.0816 11.0095 17.0476C11.18 17.0136 11.3569 17.0486 11.5015 17.1451C11.6461 17.2415 11.7464 17.3914 11.7804 17.5618C11.8145 17.7323 11.7794 17.9092 11.683 18.0538L9.06228 21.9848C9.00243 22.0745 8.92137 22.1481 8.82628 22.1989C8.73119 22.2498 8.62501 22.2757 8.51718 22.2757ZM8.51718 30.1378C8.43113 30.1379 8.34591 30.121 8.26642 30.088C8.18693 30.0551 8.11473 30.0068 8.05397 29.9458L6.74362 28.6355C6.6828 28.5747 6.63454 28.5024 6.60162 28.423C6.5687 28.3435 6.55176 28.2583 6.55176 28.1723C6.55176 28.0863 6.5687 28.0011 6.60162 27.9216C6.63454 27.8421 6.6828 27.7699 6.74362 27.7091C6.80445 27.6482 6.87667 27.6 6.95615 27.5671C7.03562 27.5341 7.12081 27.5172 7.20683 27.5172C7.29286 27.5172 7.37804 27.5341 7.45752 27.5671C7.53699 27.6 7.60921 27.6482 7.67004 27.7091L8.41562 28.4547L10.5928 25.1886C10.6405 25.117 10.7019 25.0556 10.7734 25.0077C10.8449 24.9598 10.9252 24.9265 11.0095 24.9097C11.0939 24.8928 11.1808 24.8928 11.2652 24.9095C11.3496 24.9262 11.4299 24.9594 11.5015 25.0071C11.5731 25.0549 11.6345 25.1163 11.6824 25.1878C11.7303 25.2593 11.7636 25.3395 11.7804 25.4239C11.7973 25.5083 11.7973 25.5952 11.7806 25.6796C11.7639 25.764 11.7307 25.8443 11.683 25.9159L9.06228 29.8469C9.00243 29.9366 8.92137 30.0101 8.82628 30.061C8.73119 30.1119 8.62501 30.1378 8.51718 30.1378Z" fill="#43A867"/>
</svg>
