<svg width="37" height="40" viewBox="0 0 37 40" fill="none" xmlns="http://www.w3.org/2000/svg">
<path d="M22.8044 29.8476H1.10031C0.492656 29.8476 0 29.355 0 28.7473V2.25607C0 1.64842 0.492656 1.15576 1.10031 1.15576H22.8044C23.412 1.15576 23.9047 1.64842 23.9047 2.25607V28.7473C23.9047 29.355 23.412 29.8476 22.8044 29.8476Z" fill="url(#paint0_linear_1375_739)"/>
<path d="M22.8043 1.15576H12.0881V29.8476H22.8043C23.412 29.8476 23.9046 29.355 23.9046 28.7473V2.25607C23.9046 1.64842 23.412 1.15576 22.8043 1.15576Z" fill="url(#paint1_linear_1375_739)"/>
<path d="M22.8043 1.15576H12.0881V8.66576H23.9046V2.25607C23.9046 1.64842 23.412 1.15576 22.8043 1.15576Z" fill="url(#paint2_linear_1375_739)"/>
<path d="M22.8042 29.848C23.4119 29.848 23.9045 29.3554 23.9045 28.7477V5.28275L21.5656 2.94385H18.5669V29.848H22.8042V29.848Z" fill="url(#paint3_linear_1375_739)"/>
<path d="M0 10.9771V28.7477C0 29.3553 0.492656 29.848 1.10031 29.848H22.8044C23.412 29.848 23.9047 29.3553 23.9047 28.7477V10.9771H0Z" fill="url(#paint4_linear_1375_739)"/>
<path d="M23.9047 28.7474V20.3147L19.5876 15.9976L4.31714 25.3109L8.85385 29.8476H22.8044C23.412 29.8477 23.9047 29.355 23.9047 28.7474Z" fill="url(#paint5_linear_1375_739)"/>
<path d="M21.0219 28.11H2.88282C2.44501 28.11 2.09009 27.755 2.09009 27.3172V3.50709C2.09009 3.06928 2.44501 2.71436 2.88282 2.71436H21.0219C21.4598 2.71436 21.8147 3.06928 21.8147 3.50709V27.3173C21.8146 27.755 21.4597 28.11 21.0219 28.11Z" fill="url(#paint6_linear_1375_739)"/>
<path d="M21.022 2.71436H15.1453V4.06342C15.1453 4.84537 14.5114 5.47928 13.7295 5.47928H8.81557L8.71533 5.57951L21.8147 18.6788V3.50709C21.8147 3.06928 21.4598 2.71436 21.022 2.71436Z" fill="url(#paint7_linear_1375_739)"/>
<path d="M21.022 2.71436H16.0085V28.11H21.0219C21.4597 28.11 21.8146 27.755 21.8146 27.3172V3.50709C21.8146 3.06928 21.4597 2.71436 21.022 2.71436Z" fill="url(#paint8_linear_1375_739)"/>
<path d="M2.09009 21.5V27.3174C2.09009 27.7552 2.44501 28.1101 2.88282 28.1101H21.0219C21.4598 28.1101 21.8147 27.7552 21.8147 27.3174V21.5H2.09009Z" fill="url(#paint9_linear_1375_739)"/>
<path d="M19.5876 15.9976L4.31714 25.3109L7.11612 28.1099H21.022C21.4598 28.1099 21.8147 27.755 21.8147 27.3172V18.2246L19.5876 15.9976Z" fill="url(#paint10_linear_1375_739)"/>
<path d="M8.75952 2.59253H15.1451V5.47925H8.75952V2.59253Z" fill="url(#paint11_linear_1375_739)"/>
<path d="M8.75952 2.59253H15.1451V5.47925H8.75952V2.59253Z" fill="url(#paint12_linear_1375_739)"/>
<path d="M13.9812 6.07181H9.92336C8.98234 6.07181 8.2168 5.30627 8.2168 4.36533V2.17041H15.6878V4.36525C15.6877 5.30627 14.9222 6.07181 13.9812 6.07181ZM9.08508 3.03877V4.36533C9.08508 4.82752 9.46109 5.20353 9.92336 5.20353H13.9812C14.4434 5.20353 14.8194 4.82752 14.8194 4.36533V3.03877H9.08508Z" fill="url(#paint13_linear_1375_739)"/>
<path d="M13.9812 6.07181H9.92336C8.98234 6.07181 8.2168 5.30627 8.2168 4.36533V2.17041H15.6878V4.36525C15.6877 5.30627 14.9222 6.07181 13.9812 6.07181ZM9.08508 3.03877V4.36533C9.08508 4.82752 9.46109 5.20353 9.92336 5.20353H13.9812C14.4434 5.20353 14.8194 4.82752 14.8194 4.36533V3.03877H9.08508Z" fill="url(#paint14_linear_1375_739)"/>
<path d="M13.9812 6.07181H9.92336C8.98234 6.07181 8.2168 5.30627 8.2168 4.36533V2.17041H15.6878V4.36525C15.6877 5.30627 14.9222 6.07181 13.9812 6.07181ZM9.08508 3.03877V4.36533C9.08508 4.82752 9.46109 5.20353 9.92336 5.20353H13.9812C14.4434 5.20353 14.8194 4.82752 14.8194 4.36533V3.03877H9.08508Z" fill="url(#paint15_linear_1375_739)"/>
<path d="M11.8862 3.03877H14.8194V4.36533C14.8194 4.82752 14.4433 5.20353 13.9812 5.20353H11.8863V6.07181H13.9812C14.9222 6.07181 15.6877 5.30627 15.6877 4.36533V2.17041H11.8863V3.03877H11.8862Z" fill="url(#paint16_linear_1375_739)"/>
<path d="M16.2296 2.00002C16.2296 2.52729 16.1271 3.00502 15.9603 3.35018C15.7948 3.69534 15.565 3.90948 15.3114 3.90948H8.59293C8.08582 3.90948 7.6748 3.05455 7.6748 2.00002C7.6748 1.54854 7.75066 1.1276 7.87973 0.796978C8.00879 0.465651 8.19113 0.224557 8.40363 0.131354L8.6434 0.0261197C8.68181 0.00896602 8.7234 6.76731e-05 8.76546 3.84498e-07C8.80753 -6.69041e-05 8.84915 0.00869837 8.88762 0.0257291C10.9085 0.911978 12.9959 0.911978 15.0168 0.0257291C15.0552 0.00869837 15.0968 -6.69041e-05 15.1389 3.84498e-07C15.181 6.76731e-05 15.2226 0.00896602 15.261 0.0261197L15.5007 0.131354C15.9257 0.317057 16.2296 1.09698 16.2296 2.00002Z" fill="url(#paint17_linear_1375_739)"/>
<path d="M14.3634 2.20029C14.3634 2.49747 14.3057 2.76677 14.2117 2.96138C14.1184 3.15599 13.9888 3.27661 13.8459 3.27661H10.0588C9.7729 3.27661 9.54126 2.79466 9.54126 2.20029C9.54126 1.94575 9.58399 1.70849 9.65681 1.52216C9.72954 1.33536 9.83235 1.19951 9.95212 1.14701L10.0873 1.08771C10.1089 1.07805 10.1324 1.07304 10.1561 1.073C10.1798 1.07296 10.2032 1.07789 10.2249 1.08747C11.3641 1.58708 12.5408 1.58708 13.6799 1.08747C13.7016 1.07789 13.7251 1.07296 13.7488 1.073C13.7725 1.07304 13.7959 1.07805 13.8176 1.08771L13.9527 1.14701C14.1922 1.25161 14.3634 1.69122 14.3634 2.20029Z" fill="url(#paint18_linear_1375_739)"/>
<path d="M7.67505 2.00018C7.67505 3.05463 8.08606 3.90963 8.59317 3.90963H15.3117C15.5652 3.90963 15.795 3.69556 15.9606 3.35033C16.1273 3.00517 16.2298 2.52744 16.2298 2.00018C16.2298 1.88119 16.2244 1.76447 16.2143 1.65088H7.69083C7.68034 1.76702 7.67508 1.88357 7.67505 2.00018Z" fill="url(#paint19_linear_1375_739)"/>
<path d="M15.5008 0.131354L15.2611 0.0261197C15.2226 0.00896602 15.1811 6.76731e-05 15.139 3.84498e-07C15.0969 -6.69041e-05 15.0553 0.00869837 15.0168 0.0257291C13.8931 0.518541 12.7487 0.7369 11.6067 0.681666V3.9094H15.3115C15.565 3.9094 15.7949 3.69534 15.9604 3.3501C16.1272 3.00495 16.2297 2.52721 16.2297 1.99995C16.2297 1.09698 15.9257 0.317057 15.5008 0.131354Z" fill="url(#paint20_linear_1375_739)"/>
<path d="M19.1239 9.18568H9.62897C9.53047 9.18568 9.436 9.14655 9.36635 9.0769C9.2967 9.00725 9.25757 8.91278 9.25757 8.81428C9.25757 8.71577 9.2967 8.62131 9.36635 8.55165C9.436 8.482 9.53047 8.44287 9.62897 8.44287H19.1239C19.2224 8.44287 19.3169 8.482 19.3865 8.55165C19.4562 8.62131 19.4953 8.71577 19.4953 8.81428C19.4953 8.91278 19.4562 9.00725 19.3865 9.0769C19.3169 9.14655 19.2224 9.18568 19.1239 9.18568Z" fill="url(#paint21_linear_1375_739)"/>
<path d="M6.72036 10.1555H4.78083C4.73205 10.1555 4.68375 10.1459 4.63869 10.1272C4.59362 10.1086 4.55267 10.0812 4.51818 10.0467C4.48369 10.0122 4.45634 9.97129 4.43767 9.92622C4.41901 9.88116 4.40941 9.83286 4.40942 9.78408V7.84455C4.40941 7.79577 4.41901 7.74747 4.43767 7.70241C4.45634 7.65734 4.48369 7.61639 4.51818 7.5819C4.55267 7.54741 4.59362 7.52006 4.63869 7.5014C4.68375 7.48273 4.73205 7.47313 4.78083 7.47314H6.72036C6.76914 7.47313 6.81744 7.48273 6.8625 7.5014C6.90757 7.52006 6.94852 7.54741 6.98301 7.5819C7.0175 7.61639 7.04485 7.65734 7.06351 7.70241C7.08218 7.74747 7.09178 7.79577 7.09177 7.84455V9.78408C7.09177 9.88258 7.05264 9.97705 6.98298 10.0467C6.91333 10.1164 6.81886 10.1555 6.72036 10.1555Z" fill="url(#paint22_linear_1375_739)"/>
<path d="M6.72036 10.1555H4.78083C4.73205 10.1555 4.68375 10.1459 4.63869 10.1272C4.59362 10.1086 4.55267 10.0812 4.51818 10.0467C4.48369 10.0122 4.45634 9.97129 4.43767 9.92622C4.41901 9.88116 4.40941 9.83286 4.40942 9.78408V7.84455C4.40941 7.79577 4.41901 7.74747 4.43767 7.70241C4.45634 7.65734 4.48369 7.61639 4.51818 7.5819C4.55267 7.54741 4.59362 7.52006 4.63869 7.5014C4.68375 7.48273 4.73205 7.47313 4.78083 7.47314H6.72036C6.76914 7.47313 6.81744 7.48273 6.8625 7.5014C6.90757 7.52006 6.94852 7.54741 6.98301 7.5819C7.0175 7.61639 7.04485 7.65734 7.06351 7.70241C7.08218 7.74747 7.09178 7.79577 7.09177 7.84455V9.78408C7.09177 9.88258 7.05264 9.97705 6.98298 10.0467C6.91333 10.1164 6.81886 10.1555 6.72036 10.1555Z" fill="url(#paint23_linear_1375_739)"/>
<path d="M6.72036 10.1555H4.78083C4.73205 10.1555 4.68375 10.1459 4.63869 10.1272C4.59362 10.1086 4.55267 10.0812 4.51818 10.0467C4.48369 10.0122 4.45634 9.97129 4.43767 9.92622C4.41901 9.88116 4.40941 9.83286 4.40942 9.78408V7.84455C4.40941 7.79577 4.41901 7.74747 4.43767 7.70241C4.45634 7.65734 4.48369 7.61639 4.51818 7.5819C4.55267 7.54741 4.59362 7.52006 4.63869 7.5014C4.68375 7.48273 4.73205 7.47313 4.78083 7.47314H6.72036C6.76914 7.47313 6.81744 7.48273 6.8625 7.5014C6.90757 7.52006 6.94852 7.54741 6.98301 7.5819C7.0175 7.61639 7.04485 7.65734 7.06351 7.70241C7.08218 7.74747 7.09178 7.79577 7.09177 7.84455V9.78408C7.09177 9.88258 7.05264 9.97705 6.98298 10.0467C6.91333 10.1164 6.81886 10.1555 6.72036 10.1555Z" fill="url(#paint24_linear_1375_739)"/>
<path d="M6.03284 9.73899C5.94794 9.73922 5.86384 9.7226 5.7854 9.69011C5.70697 9.65762 5.63575 9.60989 5.57589 9.54969L4.86042 8.83423C4.78208 8.75218 4.73896 8.64274 4.74026 8.52931C4.74157 8.41588 4.78721 8.30746 4.86742 8.22724C4.94763 8.14702 5.05604 8.10137 5.16947 8.10005C5.2829 8.09873 5.39235 8.14184 5.4744 8.22016L6.03284 8.7786L7.82557 6.98587C7.90763 6.90754 8.01708 6.86443 8.13051 6.86575C8.24394 6.86707 8.35235 6.91273 8.43256 6.99294C8.51277 7.07316 8.5584 7.18158 8.55971 7.29501C8.56102 7.40844 8.51789 7.51788 8.43956 7.59993L6.48971 9.54977C6.42984 9.60994 6.35864 9.65764 6.28022 9.69012C6.2018 9.7226 6.11772 9.73921 6.03284 9.73899Z" fill="url(#paint25_linear_1375_739)"/>
<path d="M6.03284 9.73899C5.94794 9.73922 5.86384 9.7226 5.7854 9.69011C5.70697 9.65762 5.63575 9.60989 5.57589 9.54969L4.86042 8.83423C4.78208 8.75218 4.73896 8.64274 4.74026 8.52931C4.74157 8.41588 4.78721 8.30746 4.86742 8.22724C4.94763 8.14702 5.05604 8.10137 5.16947 8.10005C5.2829 8.09873 5.39235 8.14184 5.4744 8.22016L6.03284 8.7786L7.82557 6.98587C7.90763 6.90754 8.01708 6.86443 8.13051 6.86575C8.24394 6.86707 8.35235 6.91273 8.43256 6.99294C8.51277 7.07316 8.5584 7.18158 8.55971 7.29501C8.56102 7.40844 8.51789 7.51788 8.43956 7.59993L6.48971 9.54977C6.42984 9.60994 6.35864 9.65764 6.28022 9.69012C6.2018 9.7226 6.11772 9.73921 6.03284 9.73899Z" fill="url(#paint26_linear_1375_739)"/>
<path d="M19.1239 12.9408H9.62897C9.53047 12.9408 9.436 12.9017 9.36635 12.832C9.2967 12.7624 9.25757 12.6679 9.25757 12.5694C9.25757 12.4709 9.2967 12.3764 9.36635 12.3068C9.436 12.2371 9.53047 12.198 9.62897 12.198H19.1239C19.2224 12.198 19.3169 12.2371 19.3865 12.3068C19.4562 12.3764 19.4953 12.4709 19.4953 12.5694C19.4953 12.6679 19.4562 12.7624 19.3865 12.832C19.3169 12.9017 19.2224 12.9408 19.1239 12.9408Z" fill="url(#paint27_linear_1375_739)"/>
<path d="M6.72036 13.9109H4.78083C4.73205 13.9109 4.68375 13.9013 4.63869 13.8826C4.59362 13.8639 4.55267 13.8366 4.51818 13.8021C4.48369 13.7676 4.45634 13.7267 4.43767 13.6816C4.41901 13.6365 4.40941 13.5882 4.40942 13.5395V11.5999C4.40941 11.5511 4.41901 11.5028 4.43767 11.4578C4.45634 11.4127 4.48369 11.3718 4.51818 11.3373C4.55267 11.3028 4.59362 11.2754 4.63869 11.2568C4.68375 11.2381 4.73205 11.2285 4.78083 11.2285H6.72036C6.76914 11.2285 6.81744 11.2381 6.8625 11.2568C6.90757 11.2754 6.94852 11.3028 6.98301 11.3373C7.0175 11.3718 7.04485 11.4127 7.06351 11.4578C7.08218 11.5028 7.09178 11.5511 7.09177 11.5999V13.5395C7.09174 13.6379 7.05261 13.7324 6.98296 13.8021C6.91331 13.8717 6.81886 13.9108 6.72036 13.9109Z" fill="url(#paint28_linear_1375_739)"/>
<path d="M6.72036 13.9109H4.78083C4.73205 13.9109 4.68375 13.9013 4.63869 13.8826C4.59362 13.8639 4.55267 13.8366 4.51818 13.8021C4.48369 13.7676 4.45634 13.7267 4.43767 13.6816C4.41901 13.6365 4.40941 13.5882 4.40942 13.5395V11.5999C4.40941 11.5511 4.41901 11.5028 4.43767 11.4578C4.45634 11.4127 4.48369 11.3718 4.51818 11.3373C4.55267 11.3028 4.59362 11.2754 4.63869 11.2568C4.68375 11.2381 4.73205 11.2285 4.78083 11.2285H6.72036C6.76914 11.2285 6.81744 11.2381 6.8625 11.2568C6.90757 11.2754 6.94852 11.3028 6.98301 11.3373C7.0175 11.3718 7.04485 11.4127 7.06351 11.4578C7.08218 11.5028 7.09178 11.5511 7.09177 11.5999V13.5395C7.09174 13.6379 7.05261 13.7324 6.98296 13.8021C6.91331 13.8717 6.81886 13.9108 6.72036 13.9109Z" fill="url(#paint29_linear_1375_739)"/>
<path d="M6.72036 13.9109H4.78083C4.73205 13.9109 4.68375 13.9013 4.63869 13.8826C4.59362 13.8639 4.55267 13.8366 4.51818 13.8021C4.48369 13.7676 4.45634 13.7267 4.43767 13.6816C4.41901 13.6365 4.40941 13.5882 4.40942 13.5395V11.5999C4.40941 11.5511 4.41901 11.5028 4.43767 11.4578C4.45634 11.4127 4.48369 11.3718 4.51818 11.3373C4.55267 11.3028 4.59362 11.2754 4.63869 11.2568C4.68375 11.2381 4.73205 11.2285 4.78083 11.2285H6.72036C6.76914 11.2285 6.81744 11.2381 6.8625 11.2568C6.90757 11.2754 6.94852 11.3028 6.98301 11.3373C7.0175 11.3718 7.04485 11.4127 7.06351 11.4578C7.08218 11.5028 7.09178 11.5511 7.09177 11.5999V13.5395C7.09174 13.6379 7.05261 13.7324 6.98296 13.8021C6.91331 13.8717 6.81886 13.9108 6.72036 13.9109Z" fill="url(#paint30_linear_1375_739)"/>
<path d="M6.03284 13.4939C5.94794 13.4941 5.86384 13.4775 5.7854 13.445C5.70697 13.4125 5.63575 13.3648 5.57589 13.3046L4.86042 12.5891C4.78208 12.5071 4.73896 12.3976 4.74026 12.2842C4.74157 12.1708 4.78721 12.0623 4.86742 11.9821C4.94763 11.9019 5.05604 11.8563 5.16947 11.8549C5.2829 11.8536 5.39235 11.8967 5.4744 11.975L6.03284 12.5335L7.82557 10.7408C7.90763 10.6624 8.01708 10.6193 8.13051 10.6206C8.24394 10.622 8.35235 10.6676 8.43256 10.7478C8.51277 10.828 8.5584 10.9365 8.55971 11.0499C8.56102 11.1633 8.51789 11.2728 8.43956 11.3548L6.48971 13.3047C6.42984 13.3648 6.35864 13.4125 6.28022 13.445C6.2018 13.4775 6.11772 13.4941 6.03284 13.4939Z" fill="url(#paint31_linear_1375_739)"/>
<path d="M6.03284 13.4939C5.94794 13.4941 5.86384 13.4775 5.7854 13.445C5.70697 13.4125 5.63575 13.3648 5.57589 13.3046L4.86042 12.5891C4.78208 12.5071 4.73896 12.3976 4.74026 12.2842C4.74157 12.1708 4.78721 12.0623 4.86742 11.9821C4.94763 11.9019 5.05604 11.8563 5.16947 11.8549C5.2829 11.8536 5.39235 11.8967 5.4744 11.975L6.03284 12.5335L7.82557 10.7408C7.90763 10.6624 8.01708 10.6193 8.13051 10.6206C8.24394 10.622 8.35235 10.6676 8.43256 10.7478C8.51277 10.828 8.5584 10.9365 8.55971 11.0499C8.56102 11.1633 8.51789 11.2728 8.43956 11.3548L6.48971 13.3047C6.42984 13.3648 6.35864 13.4125 6.28022 13.445C6.2018 13.4775 6.11772 13.4941 6.03284 13.4939Z" fill="url(#paint32_linear_1375_739)"/>
<path d="M19.8093 16.5179V24.7906C19.8092 24.9536 19.7541 25.1119 19.6529 25.2397C19.5517 25.3675 19.4103 25.4574 19.2516 25.4949L12.1184 27.1776C12.0092 27.2032 11.8955 27.2032 11.7863 27.1776L4.65311 25.4949C4.49442 25.4574 4.35302 25.3675 4.25181 25.2397C4.15059 25.1119 4.0955 24.9536 4.09546 24.7906V16.5179C4.09547 16.4208 4.11502 16.3247 4.15297 16.2353C4.19091 16.1459 4.24647 16.0651 4.31632 15.9976H19.5876V15.9968C19.6578 16.0643 19.7136 16.1452 19.7517 16.2347C19.7897 16.3243 19.8093 16.4206 19.8093 16.5179Z" fill="url(#paint33_linear_1375_739)"/>
<path d="M19.5877 15.9976H15.1719V26.4574L19.2517 25.4949C19.4104 25.4574 19.5518 25.3675 19.653 25.2397C19.7542 25.1119 19.8093 24.9536 19.8094 24.7906V16.5179C19.8094 16.4206 19.7898 16.3243 19.7518 16.2347C19.7137 16.1452 19.6579 16.0643 19.5877 15.9968V15.9976Z" fill="url(#paint34_linear_1375_739)"/>
<path d="M11.9524 15.9976V27.1967C11.8968 27.1967 11.8412 27.1904 11.7863 27.1776L4.65311 25.4949C4.49442 25.4575 4.35302 25.3676 4.25181 25.2397C4.15059 25.1119 4.0955 24.9536 4.09546 24.7906V16.5179C4.09547 16.4208 4.11502 16.3247 4.15297 16.2353C4.19091 16.1459 4.24647 16.0651 4.31632 15.9976H11.9524V15.9976Z" fill="url(#paint35_linear_1375_739)"/>
<path d="M11.9524 22.0965V27.1969C11.8968 27.1969 11.8412 27.1907 11.7863 27.1779L4.65311 25.4951C4.49442 25.4577 4.35302 25.3678 4.25181 25.24C4.15059 25.1121 4.0955 24.9539 4.09546 24.7908V20.3391L11.1505 22.0032C11.4133 22.0652 11.6824 22.0965 11.9524 22.0965Z" fill="url(#paint36_linear_1375_739)"/>
<path d="M11.9524 22.0965V27.1969C12.008 27.1969 12.0636 27.1907 12.1185 27.1779L19.2517 25.4951C19.4104 25.4577 19.5518 25.3678 19.653 25.24C19.7542 25.1121 19.8093 24.9539 19.8093 24.7908V20.3391L12.7543 22.0032C12.4915 22.0652 12.2224 22.0965 11.9524 22.0965Z" fill="url(#paint37_linear_1375_739)"/>
<path d="M19.5874 15.9978L12.3702 17.7004C12.0953 17.7653 11.809 17.7653 11.5341 17.7004L4.31689 15.9978C4.41026 15.9075 4.52618 15.844 4.65252 15.8138L11.7861 14.1311C11.8953 14.1054 12.009 14.1054 12.1182 14.1311L14.7818 14.7595V15.0804H16.1426L19.2518 15.8138C19.3782 15.8439 19.4941 15.9075 19.5874 15.9978Z" fill="url(#paint38_linear_1375_739)"/>
<path d="M14.782 14.7595V15.0804L7.60487 16.7737L4.31714 15.9978C4.4105 15.9075 4.52642 15.844 4.65276 15.8138L11.7864 14.1311C11.8956 14.1054 12.0092 14.1054 12.1185 14.1311L14.782 14.7595Z" fill="url(#paint39_linear_1375_739)"/>
<path d="M14.782 14.759L7.07533 16.5773C7.03251 16.5874 6.99435 16.6117 6.96704 16.6462C6.93973 16.6807 6.92487 16.7234 6.92486 16.7674L6.92432 19.1847C6.92432 19.2373 6.96057 19.2831 7.01182 19.2952L8.14588 19.5625C8.16255 19.5665 8.17989 19.5666 8.19661 19.5628C8.21333 19.5591 8.22898 19.5517 8.24241 19.541C8.25584 19.5304 8.26669 19.5169 8.27415 19.5014C8.28161 19.486 8.28548 19.4691 8.28549 19.452V17.0748C8.28549 16.9922 8.34236 16.9204 8.42275 16.9014L16.1427 15.0802L14.782 14.759Z" fill="url(#paint40_linear_1375_739)"/>
<path d="M10.5911 16.3901L8.4226 16.9015C8.3916 16.9089 8.36315 16.9245 8.34017 16.9466L6.98486 16.6269C7.00996 16.6025 7.04112 16.5854 7.0751 16.5771L9.22963 16.0688L10.5911 16.3901Z" fill="url(#paint41_linear_1375_739)"/>
<path d="M6.98502 16.627L8.33994 16.9466C8.32271 16.9633 8.30901 16.9832 8.29965 17.0053C8.2903 17.0273 8.28548 17.051 8.28549 17.075V19.452C8.28553 19.4691 8.28168 19.486 8.27424 19.5015C8.26679 19.5169 8.25594 19.5304 8.2425 19.5411C8.22906 19.5517 8.21338 19.5592 8.19664 19.5629C8.17991 19.5666 8.16255 19.5664 8.14588 19.5624L7.01182 19.2952C6.98692 19.2894 6.96473 19.2753 6.94885 19.2552C6.93297 19.2352 6.92432 19.2103 6.92432 19.1848L6.92471 16.7673C6.9247 16.7411 6.93004 16.7151 6.94041 16.6909C6.95078 16.6668 6.96596 16.645 6.98502 16.627Z" fill="url(#paint42_linear_1375_739)"/>
<path d="M6.92447 18.0208L6.92432 19.1847C6.92432 19.2372 6.96049 19.283 7.01182 19.2951L8.14588 19.5623C8.16255 19.5663 8.17991 19.5664 8.19664 19.5627C8.21338 19.5591 8.22906 19.5516 8.2425 19.541C8.25594 19.5303 8.26679 19.5168 8.27424 19.5013C8.28168 19.4859 8.28553 19.469 8.28549 19.4518V18.0208H6.92447Z" fill="url(#paint43_linear_1375_739)"/>
<path d="M4.95572 24.4579L8.08252 25.1956C8.10673 25.2013 8.13193 25.2014 8.15622 25.196C8.18051 25.1906 8.20326 25.1798 8.22277 25.1644C8.24228 25.1489 8.25804 25.1292 8.26888 25.1068C8.27971 25.0844 8.28533 25.0599 8.28533 25.035V23.3177C8.28533 23.2413 8.23275 23.1748 8.15822 23.1572L5.03143 22.4197C5.00721 22.414 4.98201 22.4138 4.95772 22.4192C4.93343 22.4246 4.91068 22.4355 4.89117 22.4509C4.87166 22.4663 4.8559 22.486 4.84507 22.5084C4.83423 22.5308 4.82861 22.5554 4.82861 22.5802V24.2973C4.82861 24.3739 4.88127 24.4404 4.95572 24.4579Z" fill="url(#paint44_linear_1375_739)"/>
<path d="M4.82861 23.0669V24.2972C4.82861 24.3737 4.88119 24.4402 4.95572 24.4578L8.08252 25.1954C8.10673 25.2011 8.13193 25.2013 8.15622 25.1959C8.18051 25.1905 8.20326 25.1797 8.22277 25.1642C8.24228 25.1488 8.25804 25.1291 8.26888 25.1067C8.27971 25.0843 8.28533 25.0597 8.28533 25.0349V23.8824L4.82861 23.0669Z" fill="url(#paint45_linear_1375_739)"/>
<path d="M8.1582 23.157L6.57031 22.7825V24.8386L8.08242 25.1954C8.10664 25.2011 8.13183 25.2012 8.15612 25.1958C8.18041 25.1904 8.20316 25.1796 8.22267 25.1642C8.24218 25.1487 8.25795 25.1291 8.26878 25.1067C8.27961 25.0843 8.28524 25.0597 8.28523 25.0348V23.3175C8.28525 23.2804 8.27272 23.2443 8.24966 23.2152C8.2266 23.186 8.19437 23.1655 8.1582 23.157Z" fill="url(#paint46_linear_1375_739)"/>
<path d="M35.9154 39.3098L35.9362 39.289C36.5627 38.6624 36.5438 37.5762 35.8989 36.7074C34.0613 34.2321 31.7682 32.102 29.1581 30.4558L27.0823 32.5316C28.7284 35.1417 30.8584 37.4349 33.3338 39.2724C34.2026 39.9174 35.2888 39.9363 35.9154 39.3098Z" fill="url(#paint47_linear_1375_739)"/>
<path d="M36.2354 38.8625C36.1612 39.0196 36.062 39.1633 35.9362 39.2891C35.9291 39.2961 35.9221 39.3032 35.9159 39.3102C35.2885 39.9368 34.2026 39.9172 33.3338 39.2727C30.8588 37.4352 28.7284 35.1422 27.0823 32.5321L28.4932 31.1204L36.2354 38.8625Z" fill="url(#paint48_linear_1375_739)"/>
<path d="M32.9462 33.3921C31.7815 32.2962 30.513 31.3103 29.1581 30.4558L27.0823 32.5316C27.9368 33.8865 28.9227 35.155 30.0186 36.3197L32.9462 33.3921Z" fill="url(#paint49_linear_1375_739)"/>
<path d="M33.4038 39.4784C34.3186 40.1571 35.4621 40.1769 36.1218 39.5172L36.1436 39.4953C36.8033 38.8356 36.7836 37.6922 36.1048 36.7773L33.4038 39.4784Z" fill="url(#paint50_linear_1375_739)"/>
<path d="M33.4038 39.4784C34.3186 40.1571 35.4621 40.1769 36.1218 39.5172L36.1436 39.4953C36.8033 38.8356 36.7836 37.6922 36.1048 36.7773L33.4038 39.4784Z" fill="url(#paint51_linear_1375_739)"/>
<path d="M33.4038 39.4784C34.3186 40.1571 35.4621 40.1769 36.1218 39.5172L36.1436 39.4953C36.8033 38.8356 36.7836 37.6922 36.1048 36.7773L33.4038 39.4784Z" fill="url(#paint52_linear_1375_739)"/>
<path d="M27.6762 33.5455L30.1719 31.0498C30.3603 30.8615 30.2605 30.4563 29.9491 30.1449C29.6825 29.8783 29.3394 29.7611 29.1267 29.8639L28.8843 29.981C27.872 30.4701 27.0965 31.2455 26.6075 32.2578L26.4903 32.5002C26.3875 32.7129 26.5048 33.0561 26.7714 33.3226C27.0828 33.6341 27.4878 33.7339 27.6762 33.5455Z" fill="url(#paint53_linear_1375_739)"/>
<path d="M27.6763 33.5456C27.4879 33.734 27.0828 33.6342 26.7714 33.3228C26.5048 33.0562 26.3875 32.7131 26.4903 32.5004L26.6075 32.2579C26.852 31.7518 27.1682 31.3049 27.5496 30.9233L28.9241 32.2978L27.6763 33.5456Z" fill="url(#paint54_linear_1375_739)"/>
<path d="M29.9491 30.1448C30.2606 30.4562 30.3603 30.8614 30.172 31.0497L27.6763 33.5454C27.4879 33.7338 27.0827 33.634 26.7713 33.3226C26.6093 33.1606 26.5029 32.9703 26.467 32.7982L29.4247 29.8406C29.5969 29.8763 29.787 29.9827 29.9491 30.1448Z" fill="url(#paint55_linear_1375_739)"/>
<path d="M26.7426 32.1716L28.7981 30.1161C28.9532 29.961 28.871 29.6273 28.6146 29.3708C28.395 29.1512 28.1125 29.0547 27.9372 29.1393L27.7375 29.2358C26.9038 29.6386 26.2651 30.2773 25.8623 31.111L25.7658 31.3107C25.6811 31.486 25.7777 31.7685 25.9973 31.9881C26.2538 32.2445 26.5875 32.3267 26.7426 32.1716Z" fill="url(#paint56_linear_1375_739)"/>
<path d="M26.7426 32.1715C26.5874 32.3266 26.2538 32.2445 25.9973 31.988C25.7777 31.7684 25.6812 31.4859 25.7658 31.3106L25.8623 31.1109C26.0637 30.6941 26.3241 30.3259 26.6383 30.0117L27.7703 31.1437L26.7426 32.1715Z" fill="url(#paint57_linear_1375_739)"/>
<path d="M28.6145 29.3709C28.871 29.6274 28.9531 29.9611 28.798 30.1162L26.7425 32.1717C26.5874 32.3268 26.2537 32.2447 25.9972 31.9882C25.8638 31.8547 25.7761 31.698 25.7466 31.5563L28.1825 29.1204C28.3243 29.1498 28.481 29.2375 28.6145 29.3709Z" fill="url(#paint58_linear_1375_739)"/>
<path d="M34.1349 39.8445L36.4705 37.5089C36.6467 37.3327 36.5817 36.9818 36.3252 36.7254C36.1056 36.5057 35.8104 36.4219 35.6175 36.5243L35.3977 36.6409C34.4797 37.128 33.754 37.8536 33.2669 38.7717L33.1502 38.9915C33.0479 39.1845 33.1317 39.4797 33.3513 39.6993C33.6078 39.9557 33.9587 40.0207 34.1349 39.8445Z" fill="url(#paint59_linear_1375_739)"/>
<path d="M34.1349 39.8442C33.9587 40.0204 33.6078 39.9554 33.3513 39.699C33.1317 39.4794 33.0479 39.1841 33.1502 38.9912L33.2669 38.7714C33.5104 38.3124 33.8136 37.9015 34.1706 37.5444L35.3027 38.6765L34.1349 39.8442Z" fill="url(#paint60_linear_1375_739)"/>
<path d="M36.3252 36.725C36.5817 36.9815 36.6467 37.3323 36.4705 37.5086L34.1349 39.8442C33.9587 40.0204 33.6078 39.9554 33.3513 39.6989C33.2179 39.5655 33.1349 39.4041 33.113 39.2547L35.8809 36.4868C36.0304 36.5085 36.1918 36.5915 36.3252 36.725Z" fill="url(#paint61_linear_1375_739)"/>
<path d="M26.3611 17.3993C22.9547 13.9929 17.4319 13.9929 14.0255 17.3993C10.6198 20.8057 10.6198 26.3277 14.0255 29.7341C17.4319 33.1405 22.9547 33.1405 26.3611 29.7341C29.7668 26.3277 29.7668 20.8057 26.3611 17.3993Z" fill="url(#paint62_linear_1375_739)"/>
<path d="M26.8776 16.8826C23.1862 13.1911 17.201 13.1911 13.5087 16.8826C9.8171 20.5741 9.8171 26.5593 13.5087 30.2508C17.2009 33.9423 23.1861 33.9423 26.8776 30.2508C30.5692 26.5593 30.5692 20.5741 26.8776 16.8826ZM14.5703 29.1892C11.465 26.0839 11.465 21.0495 14.5703 17.9442C17.6756 14.8389 22.7108 14.8389 25.8161 17.9442C28.9214 21.0495 28.9214 26.0839 25.8161 29.1892C22.7108 32.2945 17.6756 32.2945 14.5703 29.1892Z" fill="url(#paint63_linear_1375_739)"/>
<path d="M26.3611 17.3993C22.9547 13.9929 17.4319 13.9929 14.0255 17.3993C10.6198 20.8057 10.6198 26.3277 14.0255 29.7341C17.4319 33.1405 22.9547 33.1405 26.3611 29.7341C29.7668 26.3277 29.7668 20.8057 26.3611 17.3993ZM25.6437 29.0169C22.6337 32.0269 17.7529 32.0269 14.7427 29.0169C11.7326 26.0068 11.7327 21.1267 14.7427 18.1166C17.7528 15.1066 22.6336 15.1066 25.6437 18.1166C28.6538 21.1267 28.6538 26.0067 25.6437 29.0169Z" fill="url(#paint64_linear_1375_739)"/>
<path d="M25.6436 29.0169C22.6335 32.027 17.7528 32.027 14.7426 29.0169C13.1384 27.4128 12.3896 25.2775 12.4953 23.1772H10.7485C10.644 25.7246 11.5637 28.3061 13.5085 30.2509C17.2008 33.9424 23.186 33.9424 26.8775 30.2509C28.8224 28.3061 29.742 25.7246 29.6376 23.1772H27.8908C27.9966 25.2775 27.2478 27.4127 25.6436 29.0169Z" fill="url(#paint65_linear_1375_739)"/>
<path d="M27.901 23.5663C27.901 27.8233 24.4498 31.2744 20.1928 31.2744C17.9242 31.2744 15.8849 30.2941 14.4744 28.7343L13.2393 29.9694C14.9667 31.8445 17.4423 33.0196 20.1928 33.0196C25.4139 33.019 29.646 28.7869 29.646 23.5663C29.646 20.8158 28.471 18.3401 26.5959 16.6128L25.3607 17.8479C26.9207 19.2583 27.901 21.2976 27.901 23.5663Z" fill="url(#paint66_linear_1375_739)"/>
<defs>
<linearGradient id="paint0_linear_1375_739" x1="-3.75" y1="3.91545" x2="30.2537" y2="29.0056" gradientUnits="userSpaceOnUse">
<stop stop-color="#B3DAFE"/>
<stop offset="1" stop-color="#01D0FB"/>
</linearGradient>
<linearGradient id="paint1_linear_1375_739" x1="21.5795" y1="15.5017" x2="23.8216" y2="15.5017" gradientUnits="userSpaceOnUse">
<stop stop-color="#08A9F1" stop-opacity="0"/>
<stop offset="1" stop-color="#08A9F1"/>
</linearGradient>
<linearGradient id="paint2_linear_1375_739" x1="18.1607" y1="5.01638" x2="15.1895" y2="4.54865" gradientUnits="userSpaceOnUse">
<stop stop-color="#08A9F1" stop-opacity="0"/>
<stop offset="1" stop-color="#08A9F1"/>
</linearGradient>
<linearGradient id="paint3_linear_1375_739" x1="20.6853" y1="16.8101" x2="14.5779" y2="12.7246" gradientUnits="userSpaceOnUse">
<stop stop-color="#08A9F1" stop-opacity="0"/>
<stop offset="1" stop-color="#08A9F1"/>
</linearGradient>
<linearGradient id="paint4_linear_1375_739" x1="11.9523" y1="27.6173" x2="11.9523" y2="29.8251" gradientUnits="userSpaceOnUse">
<stop stop-color="#08A9F1" stop-opacity="0"/>
<stop offset="1" stop-color="#08A9F1"/>
</linearGradient>
<linearGradient id="paint5_linear_1375_739" x1="19.2688" y1="32.9523" x2="12.7528" y2="20.1429" gradientUnits="userSpaceOnUse">
<stop stop-color="#08A9F1" stop-opacity="0"/>
<stop offset="1" stop-color="#08A9F1"/>
</linearGradient>
<linearGradient id="paint6_linear_1375_739" x1="5.87712" y1="9.33693" x2="22.6941" y2="26.1538" gradientUnits="userSpaceOnUse">
<stop stop-color="#F5FBFF"/>
<stop offset="1" stop-color="#DBD5EF"/>
</linearGradient>
<linearGradient id="paint7_linear_1375_739" x1="17.2268" y1="7.92677" x2="14.3035" y2="2.72975" gradientUnits="userSpaceOnUse">
<stop stop-color="#DBD5EF" stop-opacity="0"/>
<stop offset="0.285" stop-color="#D9D2EE" stop-opacity="0.285"/>
<stop offset="0.474" stop-color="#D4C9E9" stop-opacity="0.474"/>
<stop offset="0.635" stop-color="#CBBAE2" stop-opacity="0.635"/>
<stop offset="0.779" stop-color="#BFA5D7" stop-opacity="0.78"/>
<stop offset="0.913" stop-color="#AF8ACA" stop-opacity="0.913"/>
<stop offset="1" stop-color="#A274BF"/>
</linearGradient>
<linearGradient id="paint8_linear_1375_739" x1="19.9289" y1="15.4122" x2="21.7932" y2="15.4122" gradientUnits="userSpaceOnUse">
<stop stop-color="#DBD5EF" stop-opacity="0"/>
<stop offset="0.285" stop-color="#D9D2EE" stop-opacity="0.285"/>
<stop offset="0.474" stop-color="#D4C9E9" stop-opacity="0.474"/>
<stop offset="0.635" stop-color="#CBBAE2" stop-opacity="0.635"/>
<stop offset="0.779" stop-color="#BFA5D7" stop-opacity="0.78"/>
<stop offset="0.913" stop-color="#AF8ACA" stop-opacity="0.913"/>
<stop offset="1" stop-color="#A274BF"/>
</linearGradient>
<linearGradient id="paint9_linear_1375_739" x1="11.9523" y1="25.7918" x2="11.9523" y2="28.106" gradientUnits="userSpaceOnUse">
<stop stop-color="#DBD5EF" stop-opacity="0"/>
<stop offset="0.285" stop-color="#D9D2EE" stop-opacity="0.285"/>
<stop offset="0.474" stop-color="#D4C9E9" stop-opacity="0.474"/>
<stop offset="0.635" stop-color="#CBBAE2" stop-opacity="0.635"/>
<stop offset="0.779" stop-color="#BFA5D7" stop-opacity="0.78"/>
<stop offset="0.913" stop-color="#AF8ACA" stop-opacity="0.913"/>
<stop offset="1" stop-color="#A274BF"/>
</linearGradient>
<linearGradient id="paint10_linear_1375_739" x1="17.6958" y1="30.8693" x2="12.2985" y2="20.2592" gradientUnits="userSpaceOnUse">
<stop stop-color="#DBD5EF" stop-opacity="0"/>
<stop offset="0.285" stop-color="#D9D2EE" stop-opacity="0.285"/>
<stop offset="0.474" stop-color="#D4C9E9" stop-opacity="0.474"/>
<stop offset="0.635" stop-color="#CBBAE2" stop-opacity="0.635"/>
<stop offset="0.779" stop-color="#BFA5D7" stop-opacity="0.78"/>
<stop offset="0.913" stop-color="#AF8ACA" stop-opacity="0.913"/>
<stop offset="1" stop-color="#A274BF"/>
</linearGradient>
<linearGradient id="paint11_linear_1375_739" x1="11.9523" y1="5.14909" x2="11.9523" y2="3.82276" gradientUnits="userSpaceOnUse">
<stop stop-color="#DBD5EF" stop-opacity="0"/>
<stop offset="0.285" stop-color="#D9D2EE" stop-opacity="0.285"/>
<stop offset="0.474" stop-color="#D4C9E9" stop-opacity="0.474"/>
<stop offset="0.635" stop-color="#CBBAE2" stop-opacity="0.635"/>
<stop offset="0.779" stop-color="#BFA5D7" stop-opacity="0.78"/>
<stop offset="0.913" stop-color="#AF8ACA" stop-opacity="0.913"/>
<stop offset="1" stop-color="#A274BF"/>
</linearGradient>
<linearGradient id="paint12_linear_1375_739" x1="10.5659" y1="4.03589" x2="9.08015" y2="4.03589" gradientUnits="userSpaceOnUse">
<stop stop-color="#DBD5EF" stop-opacity="0"/>
<stop offset="0.285" stop-color="#D9D2EE" stop-opacity="0.285"/>
<stop offset="0.474" stop-color="#D4C9E9" stop-opacity="0.474"/>
<stop offset="0.635" stop-color="#CBBAE2" stop-opacity="0.635"/>
<stop offset="0.779" stop-color="#BFA5D7" stop-opacity="0.78"/>
<stop offset="0.913" stop-color="#AF8ACA" stop-opacity="0.913"/>
<stop offset="1" stop-color="#A274BF"/>
</linearGradient>
<linearGradient id="paint13_linear_1375_739" x1="11.9523" y1="5.30064" x2="11.9523" y2="6.04345" gradientUnits="userSpaceOnUse">
<stop stop-color="#5A5A5A"/>
<stop offset="1" stop-color="#444444"/>
</linearGradient>
<linearGradient id="paint14_linear_1375_739" x1="11.9523" y1="5.38322" x2="11.9523" y2="5.96095" gradientUnits="userSpaceOnUse">
<stop stop-color="#433F43" stop-opacity="0"/>
<stop offset="0.344" stop-color="#403C40" stop-opacity="0.344"/>
<stop offset="0.622" stop-color="#363336" stop-opacity="0.622"/>
<stop offset="0.876" stop-color="#252425" stop-opacity="0.876"/>
<stop offset="1" stop-color="#1A1A1A"/>
</linearGradient>
<linearGradient id="paint15_linear_1375_739" x1="11.9523" y1="4.70916" x2="11.9523" y2="3.74627" gradientUnits="userSpaceOnUse">
<stop stop-color="#433F43" stop-opacity="0"/>
<stop offset="0.344" stop-color="#403C40" stop-opacity="0.344"/>
<stop offset="0.622" stop-color="#363336" stop-opacity="0.622"/>
<stop offset="0.876" stop-color="#252425" stop-opacity="0.876"/>
<stop offset="1" stop-color="#1A1A1A"/>
</linearGradient>
<linearGradient id="paint16_linear_1375_739" x1="14.5158" y1="4.41471" x2="15.5062" y2="4.81361" gradientUnits="userSpaceOnUse">
<stop stop-color="#433F43" stop-opacity="0"/>
<stop offset="0.344" stop-color="#403C40" stop-opacity="0.344"/>
<stop offset="0.622" stop-color="#363336" stop-opacity="0.622"/>
<stop offset="0.876" stop-color="#252425" stop-opacity="0.876"/>
<stop offset="1" stop-color="#1A1A1A"/>
</linearGradient>
<linearGradient id="paint17_linear_1375_739" x1="11.9522" y1="0.962916" x2="11.9522" y2="3.81573" gradientUnits="userSpaceOnUse">
<stop stop-color="#FEF0AE"/>
<stop offset="1" stop-color="#FAC600"/>
</linearGradient>
<linearGradient id="paint18_linear_1375_739" x1="11.9524" y1="3.41138" x2="11.9524" y2="0.598647" gradientUnits="userSpaceOnUse">
<stop stop-color="#FEF0AE"/>
<stop offset="1" stop-color="#FAC600"/>
</linearGradient>
<linearGradient id="paint19_linear_1375_739" x1="11.9524" y1="3.05392" x2="11.9524" y2="3.949" gradientUnits="userSpaceOnUse">
<stop stop-color="#FE9738" stop-opacity="0"/>
<stop offset="1" stop-color="#FE9738"/>
</linearGradient>
<linearGradient id="paint20_linear_1375_739" x1="14.4297" y1="2.07807" x2="16.3005" y2="2.29815" gradientUnits="userSpaceOnUse">
<stop stop-color="#FE9738" stop-opacity="0"/>
<stop offset="1" stop-color="#FE9738"/>
</linearGradient>
<linearGradient id="paint21_linear_1375_739" x1="14.3111" y1="-0.828524" x2="14.3937" y2="11.3452" gradientUnits="userSpaceOnUse">
<stop stop-color="#DBD5EF" stop-opacity="0"/>
<stop offset="0.285" stop-color="#D9D2EE" stop-opacity="0.285"/>
<stop offset="0.474" stop-color="#D4C9E9" stop-opacity="0.474"/>
<stop offset="0.635" stop-color="#CBBAE2" stop-opacity="0.635"/>
<stop offset="0.779" stop-color="#BFA5D7" stop-opacity="0.78"/>
<stop offset="0.913" stop-color="#AF8ACA" stop-opacity="0.913"/>
<stop offset="1" stop-color="#A274BF"/>
</linearGradient>
<linearGradient id="paint22_linear_1375_739" x1="3.27458" y1="6.33838" x2="7.57669" y2="10.6405" gradientUnits="userSpaceOnUse">
<stop stop-color="#DBD5EF" stop-opacity="0"/>
<stop offset="0.285" stop-color="#D9D2EE" stop-opacity="0.285"/>
<stop offset="0.474" stop-color="#D4C9E9" stop-opacity="0.474"/>
<stop offset="0.635" stop-color="#CBBAE2" stop-opacity="0.635"/>
<stop offset="0.779" stop-color="#BFA5D7" stop-opacity="0.78"/>
<stop offset="0.913" stop-color="#AF8ACA" stop-opacity="0.913"/>
<stop offset="1" stop-color="#A274BF"/>
</linearGradient>
<linearGradient id="paint23_linear_1375_739" x1="5.75059" y1="8.83502" x2="5.75059" y2="7.34713" gradientUnits="userSpaceOnUse">
<stop stop-color="#DBD5EF" stop-opacity="0"/>
<stop offset="0.285" stop-color="#D9D2EE" stop-opacity="0.285"/>
<stop offset="0.474" stop-color="#D4C9E9" stop-opacity="0.474"/>
<stop offset="0.635" stop-color="#CBBAE2" stop-opacity="0.635"/>
<stop offset="0.779" stop-color="#BFA5D7" stop-opacity="0.78"/>
<stop offset="0.913" stop-color="#AF8ACA" stop-opacity="0.913"/>
<stop offset="1" stop-color="#A274BF"/>
</linearGradient>
<linearGradient id="paint24_linear_1375_739" x1="6.59653" y1="8.81432" x2="4.07927" y2="8.81432" gradientUnits="userSpaceOnUse">
<stop stop-color="#DBD5EF" stop-opacity="0"/>
<stop offset="0.285" stop-color="#D9D2EE" stop-opacity="0.285"/>
<stop offset="0.474" stop-color="#D4C9E9" stop-opacity="0.474"/>
<stop offset="0.635" stop-color="#CBBAE2" stop-opacity="0.635"/>
<stop offset="0.779" stop-color="#BFA5D7" stop-opacity="0.78"/>
<stop offset="0.913" stop-color="#AF8ACA" stop-opacity="0.913"/>
<stop offset="1" stop-color="#A274BF"/>
</linearGradient>
<linearGradient id="paint25_linear_1375_739" x1="6.55768" y1="7.42907" x2="6.93776" y2="9.40884" gradientUnits="userSpaceOnUse">
<stop stop-color="#BBEC6C"/>
<stop offset="0.197" stop-color="#B5E665"/>
<stop offset="0.48" stop-color="#A5D552"/>
<stop offset="0.812" stop-color="#8ABB33"/>
<stop offset="1" stop-color="#78A91F"/>
</linearGradient>
<linearGradient id="paint26_linear_1375_739" x1="7.0251" y1="8.28516" x2="7.39284" y2="8.65282" gradientUnits="userSpaceOnUse">
<stop stop-color="#334C0F" stop-opacity="0"/>
<stop offset="0.32" stop-color="#344C12" stop-opacity="0.32"/>
<stop offset="0.565" stop-color="#374A1C" stop-opacity="0.565"/>
<stop offset="0.786" stop-color="#3C482C" stop-opacity="0.786"/>
<stop offset="0.991" stop-color="#444443" stop-opacity="0.991"/>
<stop offset="1" stop-color="#444444"/>
</linearGradient>
<linearGradient id="paint27_linear_1375_739" x1="14.3111" y1="2.9266" x2="14.3937" y2="15.1003" gradientUnits="userSpaceOnUse">
<stop stop-color="#DBD5EF" stop-opacity="0"/>
<stop offset="0.285" stop-color="#D9D2EE" stop-opacity="0.285"/>
<stop offset="0.474" stop-color="#D4C9E9" stop-opacity="0.474"/>
<stop offset="0.635" stop-color="#CBBAE2" stop-opacity="0.635"/>
<stop offset="0.779" stop-color="#BFA5D7" stop-opacity="0.78"/>
<stop offset="0.913" stop-color="#AF8ACA" stop-opacity="0.913"/>
<stop offset="1" stop-color="#A274BF"/>
</linearGradient>
<linearGradient id="paint28_linear_1375_739" x1="3.27458" y1="10.0937" x2="7.57669" y2="14.3958" gradientUnits="userSpaceOnUse">
<stop stop-color="#DBD5EF" stop-opacity="0"/>
<stop offset="0.285" stop-color="#D9D2EE" stop-opacity="0.285"/>
<stop offset="0.474" stop-color="#D4C9E9" stop-opacity="0.474"/>
<stop offset="0.635" stop-color="#CBBAE2" stop-opacity="0.635"/>
<stop offset="0.779" stop-color="#BFA5D7" stop-opacity="0.78"/>
<stop offset="0.913" stop-color="#AF8ACA" stop-opacity="0.913"/>
<stop offset="1" stop-color="#A274BF"/>
</linearGradient>
<linearGradient id="paint29_linear_1375_739" x1="5.75059" y1="12.5903" x2="5.75059" y2="11.1024" gradientUnits="userSpaceOnUse">
<stop stop-color="#DBD5EF" stop-opacity="0"/>
<stop offset="0.285" stop-color="#D9D2EE" stop-opacity="0.285"/>
<stop offset="0.474" stop-color="#D4C9E9" stop-opacity="0.474"/>
<stop offset="0.635" stop-color="#CBBAE2" stop-opacity="0.635"/>
<stop offset="0.779" stop-color="#BFA5D7" stop-opacity="0.78"/>
<stop offset="0.913" stop-color="#AF8ACA" stop-opacity="0.913"/>
<stop offset="1" stop-color="#A274BF"/>
</linearGradient>
<linearGradient id="paint30_linear_1375_739" x1="6.59653" y1="12.5697" x2="4.07927" y2="12.5697" gradientUnits="userSpaceOnUse">
<stop stop-color="#DBD5EF" stop-opacity="0"/>
<stop offset="0.285" stop-color="#D9D2EE" stop-opacity="0.285"/>
<stop offset="0.474" stop-color="#D4C9E9" stop-opacity="0.474"/>
<stop offset="0.635" stop-color="#CBBAE2" stop-opacity="0.635"/>
<stop offset="0.779" stop-color="#BFA5D7" stop-opacity="0.78"/>
<stop offset="0.913" stop-color="#AF8ACA" stop-opacity="0.913"/>
<stop offset="1" stop-color="#A274BF"/>
</linearGradient>
<linearGradient id="paint31_linear_1375_739" x1="6.55768" y1="11.184" x2="6.93776" y2="13.1638" gradientUnits="userSpaceOnUse">
<stop stop-color="#BBEC6C"/>
<stop offset="0.197" stop-color="#B5E665"/>
<stop offset="0.48" stop-color="#A5D552"/>
<stop offset="0.812" stop-color="#8ABB33"/>
<stop offset="1" stop-color="#78A91F"/>
</linearGradient>
<linearGradient id="paint32_linear_1375_739" x1="7.0251" y1="12.04" x2="7.39284" y2="12.4078" gradientUnits="userSpaceOnUse">
<stop stop-color="#334C0F" stop-opacity="0"/>
<stop offset="0.32" stop-color="#344C12" stop-opacity="0.32"/>
<stop offset="0.565" stop-color="#374A1C" stop-opacity="0.565"/>
<stop offset="0.786" stop-color="#3C482C" stop-opacity="0.786"/>
<stop offset="0.991" stop-color="#444443" stop-opacity="0.991"/>
<stop offset="1" stop-color="#444444"/>
</linearGradient>
<linearGradient id="paint33_linear_1375_739" x1="5.0828" y1="15.1494" x2="18.7783" y2="26.1279" gradientUnits="userSpaceOnUse">
<stop stop-color="#FEA613"/>
<stop offset="1" stop-color="#C4573A"/>
</linearGradient>
<linearGradient id="paint34_linear_1375_739" x1="17.362" y1="21.2271" x2="20.0259" y2="21.2271" gradientUnits="userSpaceOnUse">
<stop stop-color="#C4573A" stop-opacity="0"/>
<stop offset="0.235" stop-color="#BE5539" stop-opacity="0.235"/>
<stop offset="0.539" stop-color="#AE4E35" stop-opacity="0.539"/>
<stop offset="0.879" stop-color="#934330" stop-opacity="0.879"/>
<stop offset="1" stop-color="#883F2E"/>
</linearGradient>
<linearGradient id="paint35_linear_1375_739" x1="7.43171" y1="19.7893" x2="13.0457" y2="26.734" gradientUnits="userSpaceOnUse">
<stop stop-color="#C4573A" stop-opacity="0"/>
<stop offset="0.235" stop-color="#BE5539" stop-opacity="0.235"/>
<stop offset="0.539" stop-color="#AE4E35" stop-opacity="0.539"/>
<stop offset="0.879" stop-color="#934330" stop-opacity="0.879"/>
<stop offset="1" stop-color="#883F2E"/>
</linearGradient>
<linearGradient id="paint36_linear_1375_739" x1="7.85319" y1="24.65" x2="7.52053" y2="26.3689" gradientUnits="userSpaceOnUse">
<stop stop-color="#C4573A" stop-opacity="0"/>
<stop offset="0.235" stop-color="#BE5539" stop-opacity="0.235"/>
<stop offset="0.539" stop-color="#AE4E35" stop-opacity="0.539"/>
<stop offset="0.879" stop-color="#934330" stop-opacity="0.879"/>
<stop offset="1" stop-color="#883F2E"/>
</linearGradient>
<linearGradient id="paint37_linear_1375_739" x1="16.0516" y1="24.65" x2="16.3843" y2="26.3689" gradientUnits="userSpaceOnUse">
<stop stop-color="#C4573A" stop-opacity="0"/>
<stop offset="0.235" stop-color="#BE5539" stop-opacity="0.235"/>
<stop offset="0.539" stop-color="#AE4E35" stop-opacity="0.539"/>
<stop offset="0.879" stop-color="#934330" stop-opacity="0.879"/>
<stop offset="1" stop-color="#883F2E"/>
</linearGradient>
<linearGradient id="paint38_linear_1375_739" x1="11.8999" y1="15.3006" x2="12.1078" y2="18.073" gradientUnits="userSpaceOnUse">
<stop stop-color="#FEA613"/>
<stop offset="1" stop-color="#C4573A"/>
</linearGradient>
<linearGradient id="paint39_linear_1375_739" x1="9.56518" y1="15.4439" x2="9.7176" y2="16.0816" gradientUnits="userSpaceOnUse">
<stop stop-color="#C4573A" stop-opacity="0"/>
<stop offset="0.235" stop-color="#BE5539" stop-opacity="0.235"/>
<stop offset="0.539" stop-color="#AE4E35" stop-opacity="0.539"/>
<stop offset="0.879" stop-color="#934330" stop-opacity="0.879"/>
<stop offset="1" stop-color="#883F2E"/>
</linearGradient>
<linearGradient id="paint40_linear_1375_739" x1="10.5753" y1="14.8093" x2="11.6564" y2="17.4429" gradientUnits="userSpaceOnUse">
<stop stop-color="#FEF0AE"/>
<stop offset="1" stop-color="#FAC600"/>
</linearGradient>
<linearGradient id="paint41_linear_1375_739" x1="8.78799" y1="16.4128" x2="8.78799" y2="17.0198" gradientUnits="userSpaceOnUse">
<stop stop-color="#FE9738" stop-opacity="0"/>
<stop offset="1" stop-color="#FE9738"/>
</linearGradient>
<linearGradient id="paint42_linear_1375_739" x1="7.94986" y1="18.0962" x2="8.36939" y2="18.0962" gradientUnits="userSpaceOnUse">
<stop stop-color="#FE9738" stop-opacity="0"/>
<stop offset="1" stop-color="#FE9738"/>
</linearGradient>
<linearGradient id="paint43_linear_1375_739" x1="7.56025" y1="18.9949" x2="7.47705" y2="19.4662" gradientUnits="userSpaceOnUse">
<stop stop-color="#FE9738" stop-opacity="0"/>
<stop offset="1" stop-color="#FE9738"/>
</linearGradient>
<linearGradient id="paint44_linear_1375_739" x1="5.56346" y1="22.0964" x2="7.49275" y2="25.4191" gradientUnits="userSpaceOnUse">
<stop stop-color="#F5FBFF"/>
<stop offset="1" stop-color="#DBD5EF"/>
</linearGradient>
<linearGradient id="paint45_linear_1375_739" x1="6.53713" y1="24.1472" x2="6.38971" y2="24.7903" gradientUnits="userSpaceOnUse">
<stop stop-color="#DBD5EF" stop-opacity="0"/>
<stop offset="0.285" stop-color="#D9D2EE" stop-opacity="0.285"/>
<stop offset="0.474" stop-color="#D4C9E9" stop-opacity="0.474"/>
<stop offset="0.635" stop-color="#CBBAE2" stop-opacity="0.635"/>
<stop offset="0.779" stop-color="#BFA5D7" stop-opacity="0.78"/>
<stop offset="0.913" stop-color="#AF8ACA" stop-opacity="0.913"/>
<stop offset="1" stop-color="#A274BF"/>
</linearGradient>
<linearGradient id="paint46_linear_1375_739" x1="7.78953" y1="23.9911" x2="8.29172" y2="23.9911" gradientUnits="userSpaceOnUse">
<stop stop-color="#DBD5EF" stop-opacity="0"/>
<stop offset="0.285" stop-color="#D9D2EE" stop-opacity="0.285"/>
<stop offset="0.474" stop-color="#D4C9E9" stop-opacity="0.474"/>
<stop offset="0.635" stop-color="#CBBAE2" stop-opacity="0.635"/>
<stop offset="0.779" stop-color="#BFA5D7" stop-opacity="0.78"/>
<stop offset="0.913" stop-color="#AF8ACA" stop-opacity="0.913"/>
<stop offset="1" stop-color="#A274BF"/>
</linearGradient>
<linearGradient id="paint47_linear_1375_739" x1="32.6373" y1="34.7821" x2="31.3824" y2="36.0371" gradientUnits="userSpaceOnUse">
<stop stop-color="#5A5A5A"/>
<stop offset="1" stop-color="#444444"/>
</linearGradient>
<linearGradient id="paint48_linear_1375_739" x1="32.1177" y1="35.3021" x2="30.6084" y2="36.8115" gradientUnits="userSpaceOnUse">
<stop stop-color="#433F43" stop-opacity="0"/>
<stop offset="0.344" stop-color="#403C40" stop-opacity="0.344"/>
<stop offset="0.622" stop-color="#363336" stop-opacity="0.622"/>
<stop offset="0.876" stop-color="#252425" stop-opacity="0.876"/>
<stop offset="1" stop-color="#1A1A1A"/>
</linearGradient>
<linearGradient id="paint49_linear_1375_739" x1="30.2571" y1="33.6307" x2="28.9184" y2="32.292" gradientUnits="userSpaceOnUse">
<stop stop-color="#433F43" stop-opacity="0"/>
<stop offset="0.344" stop-color="#403C40" stop-opacity="0.344"/>
<stop offset="0.622" stop-color="#363336" stop-opacity="0.622"/>
<stop offset="0.876" stop-color="#252425" stop-opacity="0.876"/>
<stop offset="1" stop-color="#1A1A1A"/>
</linearGradient>
<linearGradient id="paint50_linear_1375_739" x1="35.0327" y1="38.4063" x2="35.9944" y2="39.368" gradientUnits="userSpaceOnUse">
<stop stop-color="#FEF0AE"/>
<stop offset="1" stop-color="#FAC600"/>
</linearGradient>
<linearGradient id="paint51_linear_1375_739" x1="36.3415" y1="39.7152" x2="35.0169" y2="38.3906" gradientUnits="userSpaceOnUse">
<stop stop-color="#FE9738" stop-opacity="0"/>
<stop offset="1" stop-color="#FE9738"/>
</linearGradient>
<linearGradient id="paint52_linear_1375_739" x1="35.0695" y1="37.8215" x2="34.9581" y2="40.0213" gradientUnits="userSpaceOnUse">
<stop stop-color="#FE9738" stop-opacity="0"/>
<stop offset="1" stop-color="#FE9738"/>
</linearGradient>
<linearGradient id="paint53_linear_1375_739" x1="27.8009" y1="31.1379" x2="28.7946" y2="32.1316" gradientUnits="userSpaceOnUse">
<stop stop-color="#FEF0AE"/>
<stop offset="1" stop-color="#FAC600"/>
</linearGradient>
<linearGradient id="paint54_linear_1375_739" x1="27.6279" y1="32.6848" x2="27.328" y2="33.5969" gradientUnits="userSpaceOnUse">
<stop stop-color="#FE9738" stop-opacity="0"/>
<stop offset="1" stop-color="#FE9738"/>
</linearGradient>
<linearGradient id="paint55_linear_1375_739" x1="28.3639" y1="31.7007" x2="28.9856" y2="32.3224" gradientUnits="userSpaceOnUse">
<stop stop-color="#FE9738" stop-opacity="0"/>
<stop offset="1" stop-color="#FE9738"/>
</linearGradient>
<linearGradient id="paint56_linear_1375_739" x1="26.849" y1="30.1859" x2="27.6674" y2="31.0043" gradientUnits="userSpaceOnUse">
<stop stop-color="#FEF0AE"/>
<stop offset="1" stop-color="#FAC600"/>
</linearGradient>
<linearGradient id="paint57_linear_1375_739" x1="26.7064" y1="31.4598" x2="26.4594" y2="32.211" gradientUnits="userSpaceOnUse">
<stop stop-color="#FE9738" stop-opacity="0"/>
<stop offset="1" stop-color="#FE9738"/>
</linearGradient>
<linearGradient id="paint58_linear_1375_739" x1="27.3126" y1="30.6497" x2="27.8246" y2="31.1617" gradientUnits="userSpaceOnUse">
<stop stop-color="#FE9738" stop-opacity="0"/>
<stop offset="1" stop-color="#FE9738"/>
</linearGradient>
<linearGradient id="paint59_linear_1375_739" x1="34.2741" y1="37.8214" x2="35.0924" y2="38.6397" gradientUnits="userSpaceOnUse">
<stop stop-color="#FEF0AE"/>
<stop offset="1" stop-color="#FAC600"/>
</linearGradient>
<linearGradient id="paint60_linear_1375_739" x1="34.0344" y1="39.1921" x2="33.8064" y2="40.0354" gradientUnits="userSpaceOnUse">
<stop stop-color="#FE9738" stop-opacity="0"/>
<stop offset="1" stop-color="#FE9738"/>
</linearGradient>
<linearGradient id="paint61_linear_1375_739" x1="34.7377" y1="38.2847" x2="35.2497" y2="38.7967" gradientUnits="userSpaceOnUse">
<stop stop-color="#FE9738" stop-opacity="0"/>
<stop offset="1" stop-color="#FE9738"/>
</linearGradient>
<linearGradient id="paint62_linear_1375_739" x1="25.022" y1="28.3955" x2="14.749" y2="18.1224" gradientUnits="userSpaceOnUse">
<stop stop-color="white" stop-opacity="0"/>
<stop offset="1" stop-color="white"/>
</linearGradient>
<linearGradient id="paint63_linear_1375_739" x1="14.4108" y1="17.7844" x2="24.8418" y2="28.2153" gradientUnits="userSpaceOnUse">
<stop stop-color="#5A5A5A"/>
<stop offset="1" stop-color="#444444"/>
</linearGradient>
<linearGradient id="paint64_linear_1375_739" x1="26.298" y1="29.6715" x2="13.1591" y2="16.5326" gradientUnits="userSpaceOnUse">
<stop stop-color="#5A5A5A"/>
<stop offset="1" stop-color="#444444"/>
</linearGradient>
<linearGradient id="paint65_linear_1375_739" x1="20.1931" y1="30.6401" x2="20.1931" y2="32.9529" gradientUnits="userSpaceOnUse">
<stop stop-color="#433F43" stop-opacity="0"/>
<stop offset="0.344" stop-color="#403C40" stop-opacity="0.344"/>
<stop offset="0.622" stop-color="#363336" stop-opacity="0.622"/>
<stop offset="0.876" stop-color="#252425" stop-opacity="0.876"/>
<stop offset="1" stop-color="#1A1A1A"/>
</linearGradient>
<linearGradient id="paint66_linear_1375_739" x1="24.8317" y1="27.609" x2="27.1336" y2="29.614" gradientUnits="userSpaceOnUse">
<stop stop-color="#433F43" stop-opacity="0"/>
<stop offset="0.344" stop-color="#403C40" stop-opacity="0.344"/>
<stop offset="0.622" stop-color="#363336" stop-opacity="0.622"/>
<stop offset="0.876" stop-color="#252425" stop-opacity="0.876"/>
<stop offset="1" stop-color="#1A1A1A"/>
</linearGradient>
</defs>
</svg>
