<svg width="35" height="40" viewBox="0 0 35 40" fill="none" xmlns="http://www.w3.org/2000/svg">
<path d="M19.1084 14.932C20.4695 13.3828 21.25 11.3575 21.25 9.375V1.25C21.25 0.918479 21.1183 0.600537 20.8839 0.366117C20.6495 0.131696 20.3315 0 20 0L2.5 0C2.16848 0 1.85054 0.131696 1.61612 0.366117C1.3817 0.600537 1.25 0.918479 1.25 1.25V9.375C1.25 11.3575 2.03055 13.3828 3.39156 14.932C4.53953 16.2386 5.96641 17.082 7.5 17.3798V18.8541C5.75333 19.1519 4.16813 20.0574 3.02446 21.4108C1.8808 22.7641 1.2523 24.4781 1.25 26.25V35C1.25 35.3315 1.3817 35.6495 1.61612 35.8839C1.85054 36.1183 2.16848 36.25 2.5 36.25H20C20.3315 36.25 20.6495 36.1183 20.8839 35.8839C21.1183 35.6495 21.25 35.3315 21.25 35V26.25C21.2477 24.4781 20.6192 22.7641 19.4755 21.4108C18.3319 20.0574 16.7467 19.1519 15 18.8541V17.3798C16.5336 17.082 17.9605 16.2386 19.1084 14.932Z" fill="#F5EF9D"/>
<path d="M19.1084 14.932C20.4695 13.3828 21.25 11.3575 21.25 9.375V1.25C21.25 0.918479 21.1183 0.600537 20.8839 0.366117C20.6495 0.131696 20.3315 0 20 0L2.5 0C2.16848 0 1.85054 0.131696 1.61612 0.366117C1.3817 0.600537 1.25 0.918479 1.25 1.25V9.375C1.25 11.3575 2.03055 13.3828 3.39156 14.932C4.53953 16.2386 5.96641 17.082 7.5 17.3798V18.8541C5.75333 19.1519 4.16813 20.0574 3.02446 21.4108C1.8808 22.7641 1.2523 24.4781 1.25 26.25V35C1.25 35.3315 1.3817 35.6495 1.61612 35.8839C1.85054 36.1183 2.16848 36.25 2.5 36.25H20C20.3315 36.25 20.6495 36.1183 20.8839 35.8839C21.1183 35.6495 21.25 35.3315 21.25 35V26.25C21.2477 24.4781 20.6192 22.7641 19.4755 21.4108C18.3319 20.0574 16.7467 19.1519 15 18.8541V17.3798C16.5336 17.082 17.9605 16.2386 19.1084 14.932Z" fill="#F5EF9D"/>
<path d="M14.5234 14.9256C15.5194 14.7322 16.4554 14.1639 17.2303 13.2819C18.1961 12.1827 18.75 10.7587 18.75 9.37505V6.08911L3.81922 10.2243C4.00697 11.3592 4.50949 12.4186 5.26961 13.2819C6.04453 14.1639 6.98055 14.7322 7.97648 14.9256L9.99992 15.3186V20.9683L7.91523 21.3198C6.75147 21.5194 5.69551 22.1234 4.93351 23.0253C4.1715 23.9273 3.75237 25.0693 3.75 26.25V31.25H18.75V26.25C18.7477 25.0692 18.3286 23.9271 17.5666 23.0251C16.8045 22.1231 15.7485 21.5191 14.5847 21.3195L12.5 20.9683V15.3186L14.5234 14.9256Z" fill="url(#paint0_linear_1375_830)"/>
<path d="M0 0H22.5V2.5H0V0ZM0 33.75H22.5V36.25H0V33.75Z" fill="#595D84"/>
<path d="M34.4976 27.5121L32.6041 27.1334C32.5425 26.97 32.4757 26.8089 32.4039 26.65L33.4749 25.0434C33.5551 24.9231 33.5911 24.7789 33.5768 24.6351C33.5626 24.4913 33.499 24.3569 33.3968 24.2548L30.7452 21.6031C30.6431 21.501 30.5087 21.4373 30.3649 21.4231C30.2211 21.4089 30.0769 21.4449 29.9566 21.525L28.35 22.5961C28.1914 22.5243 28.0303 22.4575 27.8666 22.3959L27.4879 20.5024C27.4596 20.3607 27.383 20.2333 27.2713 20.1416C27.1595 20.05 27.0195 20 26.875 20H23.125C22.9805 20 22.8405 20.05 22.7287 20.1416C22.617 20.2333 22.5404 20.3607 22.5121 20.5024L22.1334 22.3959C21.9701 22.4575 21.8089 22.5243 21.65 22.5961L20.0434 21.5251C19.9231 21.4449 19.7789 21.4089 19.6351 21.4232C19.4913 21.4374 19.3569 21.501 19.2548 21.6032L16.6031 24.2548C16.501 24.3569 16.4373 24.4913 16.4231 24.6351C16.4089 24.7789 16.4449 24.9231 16.525 25.0434L17.5961 26.65C17.5243 26.8086 17.4575 26.9697 17.3959 27.1334L15.5024 27.5121C15.3607 27.5404 15.2333 27.617 15.1416 27.7287C15.05 27.8405 15 27.9805 15 28.125V31.875C15 32.0195 15.05 32.1595 15.1416 32.2713C15.2333 32.383 15.3607 32.4596 15.5024 32.4879L17.3959 32.8666C17.4575 33.03 17.5243 33.1911 17.5961 33.35L16.5251 34.9566C16.4449 35.0769 16.4089 35.2211 16.4232 35.3649C16.4374 35.5087 16.501 35.6431 16.6032 35.7452L19.2548 38.3969C19.357 38.499 19.4914 38.5627 19.6352 38.5769C19.779 38.5911 19.9232 38.5551 20.0434 38.475L21.65 37.4039C21.8086 37.4757 21.9697 37.5425 22.1334 37.6041L22.5121 39.4976C22.5404 39.6393 22.617 39.7668 22.7287 39.8584C22.8405 39.95 22.9805 40 23.125 40H26.875C27.0195 40 27.1595 39.95 27.2713 39.8584C27.383 39.7668 27.4596 39.6393 27.4879 39.4976L27.8666 37.6041C28.03 37.5425 28.1911 37.4757 28.35 37.4039L29.9566 38.4749C30.0769 38.5551 30.2211 38.5911 30.3649 38.5768C30.5087 38.5626 30.6431 38.499 30.7452 38.3968L33.3969 35.7452C33.499 35.643 33.5627 35.5086 33.5769 35.3648C33.5911 35.221 33.5551 35.0768 33.475 34.9566L32.4039 33.35C32.4757 33.1914 32.5425 33.0303 32.6041 32.8666L34.4976 32.4879C34.6393 32.4596 34.7668 32.383 34.8584 32.2713C34.95 32.1595 35 32.0195 35 31.875V28.125C35 27.9805 34.95 27.8405 34.8584 27.7287C34.7668 27.617 34.6393 27.5404 34.4976 27.5121ZM28.125 30C28.125 30.6181 27.9417 31.2223 27.5983 31.7362C27.255 32.2501 26.7669 32.6506 26.1959 32.8871C25.6249 33.1236 24.9965 33.1855 24.3903 33.065C23.7842 32.9444 23.2273 32.6467 22.7903 32.2097C22.3533 31.7727 22.0556 31.2158 21.935 30.6097C21.8145 30.0035 21.8764 29.3751 22.1129 28.8041C22.3494 28.2331 22.7499 27.745 23.2638 27.4017C23.7777 27.0583 24.3819 26.875 25 26.875C25.8285 26.8759 26.6228 27.2055 27.2087 27.7913C27.7945 28.3772 28.1241 29.1715 28.125 30Z" fill="url(#paint1_linear_1375_830)"/>
<path d="M25 24.375C23.8875 24.375 22.7999 24.7049 21.8749 25.323C20.9499 25.9411 20.2289 26.8196 19.8032 27.8474C19.3774 28.8752 19.266 30.0062 19.4831 31.0974C19.7001 32.1885 20.2359 33.1908 21.0225 33.9775C21.8092 34.7641 22.8115 35.2999 23.9026 35.5169C24.9938 35.734 26.1248 35.6226 27.1526 35.1968C28.1804 34.7711 29.0589 34.0501 29.677 33.1251C30.2951 32.2001 30.625 31.1125 30.625 30C30.625 28.5082 30.0324 27.0774 28.9775 26.0225C27.9226 24.9676 26.4918 24.375 25 24.375ZM25 33.125C24.3819 33.125 23.7777 32.9417 23.2638 32.5983C22.7499 32.255 22.3494 31.7669 22.1129 31.1959C21.8764 30.6249 21.8145 29.9965 21.935 29.3903C22.0556 28.7842 22.3533 28.2273 22.7903 27.7903C23.2273 27.3533 23.7842 27.0556 24.3903 26.935C24.9965 26.8145 25.6249 26.8764 26.1959 27.1129C26.7669 27.3494 27.255 27.7499 27.5983 28.2638C27.9417 28.7777 28.125 29.3819 28.125 30C28.125 30.8288 27.7958 31.6237 27.2097 32.2097C26.6237 32.7958 25.8288 33.125 25 33.125Z" fill="#5D99CA"/>
<defs>
<linearGradient id="paint0_linear_1375_830" x1="2.26086" y1="29.7609" x2="22.3413" y2="9.68052" gradientUnits="userSpaceOnUse">
<stop stop-color="#FC8450"/>
<stop offset="1" stop-color="#F0D160"/>
</linearGradient>
<linearGradient id="paint1_linear_1375_830" x1="17.9289" y1="37.0711" x2="32.0711" y2="22.9289" gradientUnits="userSpaceOnUse">
<stop stop-color="#5D99CA"/>
<stop offset="1" stop-color="#7ED7DE"/>
</linearGradient>
</defs>
</svg>
