<svg width="30" height="30" viewBox="0 0 30 30" fill="none" xmlns="http://www.w3.org/2000/svg">
<rect width="30" height="30" rx="5" fill="#FFE4F2"/>
<path d="M15.0939 22.0509C14.8091 22.0507 14.5293 21.9756 14.2827 21.8332L9.44509 19.0423C9.0715 18.826 8.799 18.4703 8.68737 18.0532C8.57575 17.6362 8.63413 17.1919 8.84969 16.8179L9.54742 15.6085C9.91629 15.0952 10.399 14.6743 10.9578 14.3787C11.5166 14.0832 12.1362 13.9211 12.7682 13.9051C12.7997 13.8996 12.8297 13.8872 12.856 13.8688C12.8822 13.8505 12.9041 13.8265 12.9201 13.7987C12.9361 13.771 12.9457 13.74 12.9484 13.7081C12.9511 13.6761 12.9467 13.644 12.9356 13.6139C12.6329 13.0584 12.4631 12.4402 12.4395 11.8079C12.4159 11.1756 12.5393 10.5465 12.7998 9.96992L13.4975 8.76052C13.714 8.3874 14.0695 8.11521 14.4862 8.00346C14.9028 7.89171 15.3468 7.9495 15.721 8.16419L20.5586 10.9551C20.9321 11.1714 21.2046 11.5272 21.3163 11.9442C21.4279 12.3612 21.3695 12.8055 21.154 13.1795L20.4562 14.3889C20.0873 14.9026 19.6043 15.3239 19.0451 15.6196C18.486 15.9153 17.8659 16.0774 17.2336 16.0932C17.202 16.0984 17.172 16.1106 17.1456 16.1289C17.1193 16.1471 17.0973 16.171 17.0813 16.1987C17.0653 16.2265 17.0556 16.2575 17.053 16.2894C17.0504 16.3214 17.0549 16.3535 17.0662 16.3835C17.3691 16.9392 17.5389 17.5575 17.5625 18.19C17.5861 18.8224 17.4627 19.4517 17.202 20.0284L16.5043 21.2378C16.3612 21.4852 16.1556 21.6906 15.908 21.8333C15.6605 21.976 15.3797 22.0511 15.0939 22.0509ZM14.9079 9.34289C14.867 9.34281 14.8268 9.35352 14.7913 9.37394C14.7559 9.39436 14.7264 9.42376 14.706 9.45918L14.0083 10.6686C13.8675 11.061 13.8138 11.4793 13.8507 11.8945C13.8877 12.3098 14.0144 12.712 14.2222 13.0734C14.3166 13.3022 14.3571 13.5496 14.3407 13.7966C14.3243 14.0435 14.2514 14.2834 14.1276 14.4977C14.0038 14.712 13.8325 14.895 13.6268 15.0326C13.4211 15.1702 13.1865 15.2587 12.9412 15.2913C12.5244 15.2921 12.1129 15.3835 11.7349 15.5591C11.357 15.7347 11.0216 15.9902 10.7522 16.3081L10.0544 17.5175C10.0391 17.544 10.0291 17.5732 10.025 17.6035C10.021 17.6338 10.0229 17.6646 10.0308 17.6942C10.0386 17.7237 10.0523 17.7514 10.0708 17.7757C10.0894 17.8 10.1126 17.8204 10.1391 17.8357L14.9767 20.6266C15.0302 20.6568 15.0935 20.6647 15.1528 20.6487C15.2122 20.6327 15.2628 20.594 15.2939 20.541L15.9917 19.3316C16.1324 18.9392 16.1862 18.5209 16.1492 18.1057C16.1123 17.6904 15.9855 17.2882 15.7777 16.9268C15.6832 16.6981 15.6425 16.4507 15.6588 16.2037C15.6751 15.9567 15.748 15.7169 15.8718 15.5026C15.9956 15.2883 16.1671 15.1053 16.3729 14.9679C16.5787 14.8304 16.8134 14.7421 17.0587 14.7098C17.4755 14.7084 17.887 14.6167 18.2649 14.441C18.6428 14.2653 18.9781 14.0098 19.2478 13.6921L19.9455 12.4827C19.9608 12.4562 19.9708 12.427 19.9749 12.3967C19.979 12.3664 19.977 12.3356 19.9691 12.306C19.9613 12.2765 19.9477 12.2488 19.9291 12.2245C19.9105 12.2002 19.8873 12.1798 19.8608 12.1645L15.0232 9.37359C14.988 9.35362 14.9483 9.34304 14.9079 9.34289Z" fill="#F478B8"/>
<path d="M24.3039 15.6969C24.1189 15.6969 23.9414 15.6234 23.8105 15.4925C23.6797 15.3617 23.6062 15.1842 23.6062 14.9992C23.6063 13.2971 23.1016 11.6333 22.1561 10.218C21.2105 8.80278 19.8665 7.69974 18.294 7.04838C16.7215 6.39702 14.9912 6.22661 13.3219 6.55869C11.6525 6.89077 10.1192 7.71042 8.91567 8.914C8.62718 9.20289 8.35922 9.51158 8.11374 9.8378C8.00271 9.98584 7.83742 10.0837 7.65423 10.1099C7.47104 10.136 7.28496 10.0884 7.13692 9.97735C6.98888 9.86632 6.89101 9.70103 6.86484 9.51783C6.83867 9.33464 6.88634 9.14856 6.99737 9.00052C7.2829 8.62326 7.59372 8.26582 7.92768 7.93067C9.32605 6.53171 11.1079 5.57884 13.0478 5.19256C14.9877 4.80628 16.9986 5.00394 18.8262 5.76055C20.6538 6.51716 22.216 7.79872 23.3152 9.44319C24.4144 11.0876 25.0013 13.0211 25.0016 14.9992C25.0016 15.1842 24.9281 15.3617 24.7973 15.4925C24.6664 15.6234 24.489 15.6969 24.3039 15.6969ZM15.0008 25C13.6874 25.0002 12.3868 24.7417 11.1734 24.2392C9.95992 23.7367 8.85734 23.0001 7.92863 22.0713C6.99992 21.1426 6.26327 20.0401 5.76077 18.8266C5.25827 17.6131 4.99976 16.3125 5 14.9992C5 14.8141 5.07351 14.6366 5.20436 14.5058C5.33521 14.3749 5.51268 14.3014 5.69773 14.3014C5.88278 14.3014 6.06025 14.3749 6.1911 14.5058C6.32195 14.6366 6.39546 14.8141 6.39546 14.9992C6.39537 16.7012 6.90001 18.3651 7.84557 19.7803C8.79113 21.1955 10.1351 22.2986 11.7076 22.9499C13.2801 23.6013 15.0104 23.7717 16.6798 23.4396C18.3491 23.1075 19.8825 22.2879 21.086 21.0843C21.3743 20.7959 21.642 20.4875 21.887 20.1614C22.0016 20.0239 22.1647 19.9357 22.3426 19.9149C22.5204 19.8942 22.6995 19.9425 22.8427 20.05C22.986 20.1574 23.0825 20.3157 23.1124 20.4923C23.1423 20.6688 23.1032 20.8501 23.0033 20.9987C22.7182 21.3766 22.4073 21.7343 22.073 22.0695C21.1464 23.0012 20.0443 23.7399 18.8304 24.2429C17.6164 24.7459 16.3148 25.0032 15.0008 25Z" fill="#F478B8"/>
<path d="M22.8946 23.5905C22.7095 23.5905 22.532 23.517 22.4012 23.3862C22.2703 23.2553 22.1968 23.0779 22.1968 22.8928V20.9596H20.2627C20.0777 20.9596 19.9002 20.8861 19.7693 20.7553C19.6385 20.6244 19.565 20.4469 19.565 20.2619C19.565 20.0768 19.6385 19.8994 19.7693 19.7685C19.9002 19.6377 20.0777 19.5642 20.2627 19.5642H22.8946C23.0796 19.5642 23.2571 19.6377 23.3879 19.7685C23.5188 19.8994 23.5923 20.0768 23.5923 20.2619V22.8928C23.5923 23.0779 23.5188 23.2553 23.3879 23.3862C23.2571 23.517 23.0796 23.5905 22.8946 23.5905ZM9.73813 10.4341H7.10722C6.92217 10.4341 6.7447 10.3606 6.61385 10.2298C6.483 10.0989 6.40948 9.92144 6.40948 9.73639V7.10548C6.40948 6.92043 6.483 6.74296 6.61385 6.61211C6.7447 6.48126 6.92217 6.40775 7.10722 6.40775C7.29227 6.40775 7.46974 6.48126 7.60059 6.61211C7.73144 6.74296 7.80495 6.92043 7.80495 7.10548V9.03866H9.73813C9.92318 9.03866 10.1006 9.11217 10.2315 9.24302C10.3623 9.37387 10.4359 9.55134 10.4359 9.73639C10.4359 9.92144 10.3623 10.0989 10.2315 10.2298C10.1006 10.3606 9.92318 10.4341 9.73813 10.4341Z" fill="#F478B8"/>
</svg>
