<svg width="51" height="41" viewBox="0 0 51 41" fill="none" xmlns="http://www.w3.org/2000/svg">
<path d="M22.8137 32.9572L17.4244 37.5599C13.1791 41.1854 5.85708 40.7714 2.26949 36.7159C2.03284 36.4483 1.80365 36.1766 1.58209 35.901L1.52848 35.834C-1.37045 32.199 -0.01957 27.3667 4.51236 25.0359L11.0708 21.6628L22.8137 32.9572Z" fill="#F2A98C"/>
<path d="M34.8827 11.8081C35.8007 13.1318 37.885 13.609 39.5381 12.8739L48.2534 8.99856C49.9065 8.26349 50.5024 6.59451 49.5845 5.27077C48.6665 3.94702 46.5822 3.46986 44.9291 4.20492L36.2138 8.08028C34.5608 8.81542 33.9648 10.4844 34.8827 11.8081ZM11.6549 3.5949C14.7226 3.04086 17.7703 4.58301 18.4621 7.03946L20.1983 13.2034C27.1884 11.1444 34.8067 13.0077 37.9531 17.8043C41.4188 23.0873 38.1475 29.9276 30.6465 33.0827C23.1456 36.2378 14.2555 34.5127 10.7899 29.2298C8.96245 26.4441 9.00864 23.2256 10.5602 20.3426C11.9747 17.7142 12.2854 14.789 11.499 11.9971L9.79584 5.95039C9.49711 4.88892 10.3293 3.83434 11.6549 3.5949Z" fill="#FFC5AB"/>
<path d="M40.8108 2.70738V32.0736C40.8108 33.5684 39.2976 34.781 37.4298 34.781H20.0417C18.1749 34.781 16.6606 33.5684 16.6606 32.0736V2.70738C16.6605 1.21168 18.1749 0 20.0417 0H37.4298C39.2976 0 40.8108 1.21168 40.8108 2.70738Z" fill="#424242"/>
<path d="M39.0317 2.88715V31.8938C39.0317 32.6228 38.2942 33.2133 37.3838 33.2133H20.0878C19.1774 33.2133 18.4399 32.6228 18.4399 31.8938V2.88715C18.4399 2.15818 19.1774 1.56763 20.0878 1.56763H37.3839C38.2942 1.56763 39.0317 2.15818 39.0317 2.88715Z" fill="white"/>
<path d="M39.0316 2.88715V22.8736H18.4397V2.88715C18.4397 2.15818 19.1772 1.56763 20.0875 1.56763H37.3837C38.2941 1.56763 39.0316 2.15818 39.0316 2.88715ZM34.76 26.0497H22.7114C21.8228 26.0497 21.1024 26.6265 21.1024 27.338V28.5066C21.1024 29.2181 21.8227 29.795 22.7114 29.795H34.76C35.6486 29.795 36.369 29.2182 36.369 28.5066V27.338C36.369 26.6264 35.6486 26.0497 34.76 26.0497Z" fill="#AC6BAD"/>
<path d="M28.7358 20.5842C32.7035 20.5842 35.9201 19.9403 35.9201 19.146C35.9201 18.3517 32.7035 17.7078 28.7358 17.7078C24.768 17.7078 21.5515 18.3517 21.5515 19.146C21.5515 19.9403 24.768 20.5842 28.7358 20.5842Z" fill="#913E98"/>
<path d="M28.9665 10.4271L28.9474 10.0775H26.6417L26.626 9.08878L26.5564 4.60786L26.5552 4.53052C26.5544 4.48781 26.5641 4.44539 26.5839 4.4057C26.6036 4.36602 26.6329 4.32985 26.6702 4.29927C26.7074 4.26869 26.7518 4.24432 26.8009 4.22755C26.85 4.21077 26.9027 4.20193 26.956 4.20154L28.4636 4.18629C28.6197 4.18535 28.7566 4.25463 28.8262 4.35707C28.8565 4.40204 28.8734 4.45232 28.8745 4.50721L28.9463 9.08878L28.9609 10.0775L28.9665 10.4271Z" fill="#FC933A"/>
<path d="M25.0442 8.86583C24.9848 8.79614 24.9051 8.73908 24.812 8.69961C24.7189 8.66013 24.6152 8.63943 24.5098 8.63929H22.698L22.6104 7.65055L22.579 7.29279L22.3534 4.74361C22.3299 4.48563 22.5722 4.26183 22.8956 4.24298L24.0417 4.17823C24.1439 4.17261 24.2461 4.18848 24.3383 4.22426C24.4304 4.26005 24.5093 4.31452 24.5671 4.38225C24.6256 4.45036 24.6601 4.52987 24.667 4.61239L24.9139 7.40516L24.9791 8.13507L24.9847 8.20341L25.0442 8.86583Z" fill="#FEB33C"/>
<path d="M33.8134 4.74355L33.5575 7.63704L33.4688 8.63931H32.9558C32.822 8.63932 32.6914 8.67262 32.5822 8.73461C32.473 8.79659 32.3906 8.88421 32.3462 8.98534C32.3462 8.98628 32.3451 8.98714 32.3451 8.98808L32.0746 9.6164L31.8758 10.0775H31.0149L31.1025 9.0888L31.1642 8.38767L31.4987 4.61241C31.51 4.48852 31.5821 4.37326 31.6993 4.29189C31.8165 4.21051 31.9692 4.16965 32.124 4.17825L33.2712 4.243C33.3819 4.24942 33.488 4.28087 33.5773 4.3337C33.6665 4.38653 33.7351 4.45856 33.7752 4.54141C33.8056 4.60428 33.8202 4.67254 33.8134 4.74355Z" fill="#FC933A"/>
<path d="M26.7314 10.0774H25.5898L25.3911 9.61631L25.1206 8.98799C25.1206 8.98705 25.1194 8.98619 25.1194 8.98525C25.1012 8.94286 25.0759 8.90264 25.0442 8.86569C24.9849 8.79599 24.9052 8.73894 24.8121 8.69946C24.7189 8.65999 24.6152 8.63929 24.5099 8.63915H24.4224V4.65095C24.4224 4.54398 24.4785 4.44959 24.5672 4.38219C24.6221 4.34029 24.6889 4.30985 24.762 4.29354C24.835 4.27723 24.9119 4.27555 24.9859 4.28866L26.36 4.53045C26.463 4.54893 26.5551 4.59481 26.6213 4.66061C26.6876 4.7264 26.7241 4.80823 26.7248 4.89274L26.7304 9.08871L26.7314 10.0774ZM35.8363 4.82807L35.4063 7.43841L35.3682 7.67215L35.1986 8.6978C35.0757 8.65878 34.9447 8.63896 34.8125 8.63938H32.9558C32.9307 8.63923 32.9056 8.64043 32.8807 8.64298L33.0445 7.6587L33.1052 7.29109L33.5149 4.82635C33.5253 4.76524 33.5545 4.70716 33.6 4.6574C33.6455 4.60763 33.7058 4.56776 33.7754 4.5414C33.8257 4.52163 33.8801 4.50943 33.9359 4.50543L35.338 4.4101C35.6331 4.39032 35.8756 4.59348 35.8363 4.82807ZM31.2036 9.08871L31.2598 10.0774H28.9608L28.9665 10.4271L28.9475 10.0774L28.8936 9.08871L28.6511 4.66354C28.6478 4.60499 28.662 4.54667 28.6925 4.49337C28.7229 4.44008 28.7687 4.39334 28.8262 4.35701C28.8774 4.32441 28.9368 4.30091 29.0002 4.28805C29.0637 4.27519 29.1299 4.27327 29.1943 4.2824L30.5807 4.47563C30.6847 4.48998 30.7795 4.53239 30.8494 4.59583C30.9192 4.65927 30.9598 4.73992 30.9645 4.8244L31.1643 8.3875L31.2036 9.08871Z" fill="#FFD23E"/>
<path d="M35.8231 9.57778L34.2672 17.833C34.1348 18.536 33.2962 19.0663 32.332 19.0663H25.1342C24.17 19.0663 23.3314 18.536 23.199 17.833L23.1417 17.5247L23.1317 17.4717L21.6432 9.57778C21.5489 9.07622 22.017 8.6394 22.6535 8.6394H24.5101C24.6439 8.63958 24.7744 8.67294 24.8835 8.7349C24.9927 8.79687 25.0752 8.88439 25.1197 8.98543C25.1197 8.98637 25.1208 8.98723 25.1208 8.98817L25.3914 9.61649L25.5901 10.0776H31.8763L32.075 9.61649L32.3455 8.98817C32.3455 8.98723 32.3467 8.98637 32.3467 8.98543C32.3912 8.88439 32.4737 8.79687 32.5829 8.7349C32.692 8.67294 32.8225 8.63958 32.9563 8.6394H34.8129C35.4493 8.6394 35.9173 9.07622 35.8231 9.57778Z" fill="#DB4646"/>
<path d="M33.7868 8.6394L32.3443 16.2924C32.2119 16.9962 31.3722 17.5266 30.4078 17.5266H23.2113C23.1821 17.5068 23.1608 17.4915 23.1316 17.4718L21.6432 9.57778C21.5489 9.07622 22.017 8.6394 22.6535 8.6394H24.5101C24.6439 8.63958 24.7744 8.67294 24.8835 8.7349C24.9927 8.79687 25.0752 8.88439 25.1197 8.98543C25.1197 8.98637 25.1208 8.98723 25.1208 8.98817L25.3914 9.61649C25.4494 9.75113 25.5585 9.86792 25.7033 9.95058C25.8482 10.0332 26.0217 10.0776 26.1996 10.0776H31.2667C31.4446 10.0777 31.6181 10.0333 31.763 9.95059C31.9078 9.86793 32.0169 9.75114 32.0749 9.61649L32.3454 8.98817C32.3454 8.98723 32.3466 8.98637 32.3466 8.98543C32.3911 8.88439 32.4736 8.79687 32.5828 8.7349C32.6919 8.67294 32.8224 8.63958 32.9562 8.6394H33.7868Z" fill="#EE5351"/>
<path d="M25.3186 12.5122H32.241C32.7662 12.5122 33.1445 12.9156 32.9981 13.3195L32.6188 14.3657C32.5712 14.497 32.4716 14.6124 32.3351 14.6945C32.1986 14.7766 32.0324 14.821 31.8617 14.821H25.698C25.5273 14.821 25.3611 14.7766 25.2246 14.6945C25.0881 14.6124 24.9885 14.497 24.9409 14.3657L24.5616 13.3195C24.415 12.9156 24.7934 12.5122 25.3186 12.5122Z" fill="#FEC110"/>
<path d="M42.447 28.2012L38.802 29.8219C37.4707 30.4143 35.7914 30.0295 35.0517 28.9634C34.4163 28.0475 34.6801 26.9275 35.6096 26.2543C35.766 26.1403 35.9386 26.0414 36.1237 25.9595L39.7686 24.3388C40.1771 24.1565 40.6369 24.0609 41.1045 24.061C42.0744 24.061 43.015 24.471 43.519 25.1981C43.6595 25.4001 43.7595 25.6185 43.8154 25.8453C44.0387 26.7594 43.5189 27.7239 42.447 28.2012Z" fill="#F2AEA0"/>
<path d="M43.8151 25.8453C43.6584 25.959 43.4859 26.0579 43.301 26.1401L39.656 27.7608C38.3236 28.3522 36.6442 27.9684 35.9046 26.9014C35.7644 26.6994 35.6648 26.481 35.6094 26.2543C35.7659 26.1403 35.9384 26.0414 36.1235 25.9595L39.7685 24.3388C40.1769 24.1565 40.6367 24.0609 41.1043 24.061C42.0742 24.061 43.0148 24.471 43.5188 25.1981C43.6592 25.4001 43.7592 25.6185 43.8151 25.8453Z" fill="#FFC5AB"/>
<path d="M42.447 22.2911L38.802 23.9118C37.4707 24.5041 35.7914 24.1194 35.0517 23.0533C34.4163 22.1374 34.6801 21.0173 35.6096 20.3441C35.766 20.2302 35.9386 20.1312 36.1237 20.0493L39.7686 18.4286C40.1771 18.2464 40.6369 18.1508 41.1045 18.1509C42.0744 18.1509 43.015 18.5608 43.519 19.288C43.6595 19.4899 43.7595 19.7083 43.8154 19.9351C44.0387 20.8493 43.5189 21.8138 42.447 22.2911Z" fill="#F2AEA0"/>
<path d="M43.8151 19.9351C43.6584 20.0489 43.4859 20.1478 43.301 20.2299L39.656 21.8506C38.3236 22.4421 36.6442 22.0582 35.9046 20.9913C35.7644 20.7893 35.6648 20.5709 35.6094 20.3441C35.7659 20.2302 35.9384 20.1312 36.1235 20.0493L39.7685 18.4286C40.1769 18.2464 40.6367 18.1508 41.1043 18.1509C42.0742 18.1509 43.0148 18.5608 43.5188 19.288C43.6592 19.49 43.7592 19.7083 43.8151 19.9351Z" fill="#FFC5AB"/>
<path d="M42.447 17.4373L38.802 19.058C37.4707 19.6503 35.7914 19.2656 35.0517 18.1995C34.4163 17.2836 34.6801 16.1636 35.6096 15.4903C35.766 15.3764 35.9386 15.2775 36.1237 15.1955L39.7686 13.5749C40.1771 13.3926 40.6369 13.297 41.1045 13.2971C42.0744 13.2971 43.015 13.707 43.519 14.4342C43.6595 14.6362 43.7595 14.8546 43.8154 15.0814C44.0387 15.9955 43.5189 16.96 42.447 17.4373Z" fill="#F2AEA0"/>
<path d="M43.8151 15.0814C43.6584 15.1951 43.4859 15.294 43.301 15.3762L39.656 16.9968C38.3236 17.5883 36.6442 17.2045 35.9046 16.1375C35.7644 15.9355 35.6648 15.7171 35.6094 15.4903C35.7659 15.3764 35.9384 15.2775 36.1235 15.1955L39.7685 13.5749C40.1769 13.3926 40.6367 13.297 41.1043 13.2971C42.0742 13.2971 43.0148 13.707 43.5188 14.4342C43.6592 14.6362 43.7592 14.8546 43.8151 15.0814Z" fill="#FFC5AB"/>
<path d="M38.5337 37.8425C43.4934 37.8425 47.514 34.623 47.514 30.6515C47.514 26.6801 43.4934 23.4606 38.5337 23.4606C33.5741 23.4606 29.5535 26.6801 29.5535 30.6515C29.5535 34.623 33.5741 37.8425 38.5337 37.8425Z" fill="#09CC66"/>
<path d="M37.414 34.2849C37.2507 34.2849 37.0892 34.2574 36.9401 34.2041C36.791 34.1508 36.6575 34.0729 36.5484 33.9756L32.9298 30.7468C32.5008 30.364 32.5405 29.7751 33.0186 29.4316C33.4966 29.0881 34.2322 29.1199 34.6611 29.5027L37.4998 32.0355L43.1473 27.9439C43.6235 27.5989 44.3592 27.6283 44.7901 28.0098C45.2212 28.3912 45.1843 28.9802 44.708 29.3253L38.1945 34.0444C37.9805 34.1992 37.7024 34.2849 37.414 34.2849Z" fill="white"/>
</svg>
