<svg width="26" height="26" viewBox="0 0 26 26" fill="none" xmlns="http://www.w3.org/2000/svg">
<path fill-rule="evenodd" clip-rule="evenodd" d="M10 0C15.5224 0 20 4.47761 20 10C20 15.5224 15.5224 20 10 20C4.47761 20 0 15.5224 0 10C0 4.47761 4.47761 0 10 0ZM10 1.34328C14.7761 1.34328 18.6567 5.22388 18.6567 10C18.6567 14.7761 14.7761 18.6567 10 18.6567C5.22388 18.6567 1.34328 14.7761 1.34328 10C1.34328 5.22388 5.22388 1.34328 10 1.34328Z" fill="#DF868F"/>
<path fill-rule="evenodd" clip-rule="evenodd" d="M6.7165 5.85077H10.4777C10.418 6.05972 10.3881 6.26868 10.3881 6.47763C10.3881 6.77614 10.4478 7.0448 10.5374 7.31346H7.70158C7.55233 7.31346 7.40307 7.46271 7.40307 7.61196C7.40307 7.79107 7.55233 7.91047 7.70158 7.91047H10.8359C11.2837 8.65674 12.0896 9.13435 13.015 9.1642V13.6717C13.015 14.0299 12.6867 14.3582 12.2986 14.3582H6.7165C6.32845 14.3582 6.02994 14.0299 6.02994 13.6717V6.53734C6.02994 6.14928 6.32845 5.85077 6.7165 5.85077ZM7.70158 10.6269H10.418C10.5673 10.6269 10.7165 10.7761 10.7165 10.9254C10.7165 11.1045 10.5673 11.2239 10.418 11.2239H7.70158C7.55233 11.2239 7.40307 11.1045 7.40307 10.9254C7.40307 10.7761 7.55233 10.6269 7.70158 10.6269ZM7.70158 8.9851H11.3434C11.5225 8.9851 11.6419 9.1045 11.6419 9.2836C11.6419 9.43286 11.5225 9.58211 11.3434 9.58211H7.70158C7.55233 9.58211 7.40307 9.43286 7.40307 9.2836C7.40307 9.1045 7.55233 8.9851 7.70158 8.9851Z" fill="#4D4D4D"/>
<path fill-rule="evenodd" clip-rule="evenodd" d="M13.1044 3.76123C14.597 3.76123 15.8209 4.98511 15.8209 6.47765C15.8209 7.97019 14.597 9.16422 13.1044 9.16422C11.6119 9.16422 10.388 7.97019 10.388 6.47765C10.388 4.98511 11.6119 3.76123 13.1044 3.76123ZM12.7164 7.76123V6.86571H11.8209C11.6119 6.86571 11.4328 6.6866 11.4328 6.47765C11.4328 6.26869 11.6119 6.08959 11.8209 6.08959H12.7164V5.16422C12.7164 4.95526 12.8955 4.77616 13.1044 4.77616C13.3134 4.77616 13.4925 4.95526 13.4925 5.16422V6.08959H14.388C14.597 6.08959 14.7761 6.26869 14.7761 6.47765C14.7761 6.6866 14.597 6.86571 14.388 6.86571H13.4925V7.76123C13.4925 7.97019 13.3134 8.14929 13.1044 8.14929C12.8955 8.14929 12.7164 7.97019 12.7164 7.76123Z" fill="#BC0009"/>
</svg>
