<svg width="162" height="162" viewBox="0 0 162 162" fill="none" xmlns="http://www.w3.org/2000/svg">
<circle cx="81" cy="81" r="81" fill="#A9411D" fill-opacity="0.3"/>
<circle cx="81" cy="81" r="69.8952" fill="#A9411D" fill-opacity="0.4"/>
<circle cx="81" cy="81" r="54.2177" fill="#A9411D"/>
<g clip-path="url(#clip0_373_29)">
<path d="M98.4546 70.4926L97.0396 68.9858L95.6246 67.479C95.5669 67.4147 95.4967 67.3636 95.4187 67.329C95.3407 67.2944 95.2565 67.2771 95.1716 67.2781C95.0865 67.2753 95.0019 67.2919 94.9236 67.3266C94.8453 67.3613 94.7754 67.4133 94.7186 67.479L75.1101 87.9298L67.9715 80.5425C67.9134 80.4795 67.8436 80.4293 67.7662 80.395C67.6888 80.3607 67.6056 80.3431 67.5214 80.3431C67.4372 80.3431 67.354 80.3607 67.2766 80.395C67.1992 80.4293 67.1294 80.4795 67.0713 80.5425L64.2096 83.5038C64.1486 83.5656 64.1001 83.6393 64.067 83.7208C64.0338 83.8022 64.0168 83.8896 64.0168 83.978C64.0168 84.0663 64.0338 84.1538 64.067 84.2352C64.1001 84.3166 64.1486 84.3904 64.2096 84.4521L73.2127 93.7694C73.7008 94.3211 74.3733 94.6601 75.094 94.7176C75.801 94.6521 76.4623 94.3277 76.959 93.8029H76.9752L98.4708 71.4422C98.5816 71.3097 98.6413 71.1395 98.6383 70.9642C98.6353 70.789 98.5699 70.621 98.4546 70.4926Z" fill="white"/>
</g>
<defs>
<clipPath id="clip0_373_29">
<rect width="34.621" height="27.4355" fill="white" transform="translate(64.0161 67.2822)"/>
</clipPath>
</defs>
</svg>
